<?xml version="1.0" encoding="UTF-8" standalone="yes"?><svg xmlns="http://www.w3.org/2000/svg" xmlns:xlink="http://www.w3.org/1999/xlink" height="468pt" style="width:663px;height:468px;" version="1.1" viewBox="0 0 663 468" width="663pt"><defs><filter height="300%" id="f1" width="300%" x="-1" y="-1"><feGaussianBlur result="blurOut" stdDeviation="2.0"/><feColorMatrix in="blurOut" result="blurOut2" type="matrix" values="0 0 0 0 0 0 0 0 0 0 0 0 0 0 0 0 0 0 .4 0"/><feOffset dx="4.0" dy="4.0" in="blurOut2" result="blurOut3"/><feBlend in="SourceGraphic" in2="blurOut3" mode="normal"/></filter></defs><g><rect fill="#DADADA" filter="url(#f1)" height="99.2188" style="stroke: #222222; stroke-width: 1.5;" width="209" x="284.75" y="360.5"/><ellipse cx="362" cy="376.5" fill="#ADD1B2" rx="11" ry="11" style="stroke: #222222; stroke-width: 1.0;"/><path d="M364.9688,382.1406 Q364.3906,382.4375 363.75,382.5859 Q363.1094,382.7344 362.4063,382.7344 Q359.9063,382.7344 358.5859,381.0859 Q357.2656,379.4375 357.2656,376.3125 Q357.2656,373.1875 358.5859,371.5313 Q359.9063,369.875 362.4063,369.875 Q363.1094,369.875 363.7578,370.0313 Q364.4063,370.1875 364.9688,370.4844 L364.9688,373.2031 Q364.3438,372.625 363.75,372.3516 Q363.1563,372.0781 362.5313,372.0781 Q361.1875,372.0781 360.5,373.1484 Q359.8125,374.2188 359.8125,376.3125 Q359.8125,378.4063 360.5,379.4766 Q361.1875,380.5469 362.5313,380.5469 Q363.1563,380.5469 363.75,380.2734 Q364.3438,380 364.9688,379.4219 L364.9688,382.1406 Z "/><text fill="#000000" font-family="sans-serif" font-size="12" lengthAdjust="spacingAndGlyphs" textLength="46" x="382.5" y="380.6543">Identity</text><line style="stroke: #222222; stroke-width: 1.5;" x1="285.75" x2="492.75" y1="392.5" y2="392.5"/><text fill="#000000" font-family="sans-serif" font-size="11" lengthAdjust="spacingAndGlyphs" textLength="41" x="290.75" y="406.7104">+id: PK</text><line style="stroke: #222222; stroke-width: 1.5;" x1="285.75" x2="492.75" y1="413.3047" y2="413.3047"/><text fill="#000000" font-family="sans-serif" font-size="11" lengthAdjust="spacingAndGlyphs" textLength="197" x="290.75" y="427.5151">+sign (doc: Document) : Signature</text><text fill="#000000" font-family="sans-serif" font-size="11" lengthAdjust="spacingAndGlyphs" textLength="194" x="290.75" y="440.3198">+verify (doc: Document) : boolean</text><text fill="#000000" font-family="sans-serif" font-size="11" lengthAdjust="spacingAndGlyphs" textLength="106" x="290.75" y="453.1245">+toJSON () : String</text><rect fill="#DADADA" filter="url(#f1)" height="99.2188" style="stroke: #222222; stroke-width: 1.5;" width="157" x="497.75" y="198.5"/><ellipse cx="522.65" cy="214.5" fill="#ADD1B2" rx="11" ry="11" style="stroke: #222222; stroke-width: 1.0;"/><path d="M525.6188,220.1406 Q525.0406,220.4375 524.4,220.5859 Q523.7594,220.7344 523.0563,220.7344 Q520.5563,220.7344 519.2359,219.0859 Q517.9156,217.4375 517.9156,214.3125 Q517.9156,211.1875 519.2359,209.5313 Q520.5563,207.875 523.0563,207.875 Q523.7594,207.875 524.4078,208.0313 Q525.0563,208.1875 525.6188,208.4844 L525.6188,211.2031 Q524.9938,210.625 524.4,210.3516 Q523.8063,210.0781 523.1813,210.0781 Q521.8375,210.0781 521.15,211.1484 Q520.4625,212.2188 520.4625,214.3125 Q520.4625,216.4063 521.15,217.4766 Q521.8375,218.5469 523.1813,218.5469 Q523.8063,218.5469 524.4,218.2734 Q524.9938,218 525.6188,217.4219 L525.6188,220.1406 Z "/><text fill="#000000" font-family="sans-serif" font-size="12" lengthAdjust="spacingAndGlyphs" textLength="103" x="538.85" y="218.6543">Content Handler</text><line style="stroke: #222222; stroke-width: 1.5;" x1="498.75" x2="653.75" y1="230.5" y2="230.5"/><text fill="#000000" font-family="sans-serif" font-size="11" lengthAdjust="spacingAndGlyphs" textLength="41" x="503.75" y="244.7104">+id: PK</text><text fill="#000000" font-family="sans-serif" font-size="11" lengthAdjust="spacingAndGlyphs" textLength="99" x="503.75" y="257.5151">+random : String</text><text fill="#000000" font-family="sans-serif" font-size="11" lengthAdjust="spacingAndGlyphs" textLength="145" x="503.75" y="270.3198">+signatures : Signature[]</text><line style="stroke: #222222; stroke-width: 1.5;" x1="498.75" x2="653.75" y1="276.9141" y2="276.9141"/><text fill="#000000" font-family="sans-serif" font-size="11" lengthAdjust="spacingAndGlyphs" textLength="106" x="503.75" y="291.1245">+toJSON () : String</text><rect fill="#DADADA" filter="url(#f1)" height="112.0234" style="stroke: #222222; stroke-width: 1.5;" width="167" x="285.75" y="8"/><ellipse cx="348.5" cy="24" fill="#ADD1B2" rx="11" ry="11" style="stroke: #222222; stroke-width: 1.0;"/><path d="M351.4688,29.6406 Q350.8906,29.9375 350.25,30.0859 Q349.6094,30.2344 348.9063,30.2344 Q346.4063,30.2344 345.0859,28.5859 Q343.7656,26.9375 343.7656,23.8125 Q343.7656,20.6875 345.0859,19.0313 Q346.4063,17.375 348.9063,17.375 Q349.6094,17.375 350.2578,17.5313 Q350.9063,17.6875 351.4688,17.9844 L351.4688,20.7031 Q350.8438,20.125 350.25,19.8516 Q349.6563,19.5781 349.0313,19.5781 Q347.6875,19.5781 347,20.6484 Q346.3125,21.7188 346.3125,23.8125 Q346.3125,25.9063 347,26.9766 Q347.6875,28.0469 349.0313,28.0469 Q349.6563,28.0469 350.25,27.7734 Q350.8438,27.5 351.4688,26.9219 L351.4688,29.6406 Z "/><text fill="#000000" font-family="sans-serif" font-size="12" lengthAdjust="spacingAndGlyphs" textLength="33" x="369" y="28.1543">Claim</text><line style="stroke: #222222; stroke-width: 1.5;" x1="286.75" x2="451.75" y1="40" y2="40"/><text fill="#000000" font-family="sans-serif" font-size="11" lengthAdjust="spacingAndGlyphs" textLength="41" x="291.75" y="54.2104">+id: PK</text><text fill="#000000" font-family="sans-serif" font-size="11" lengthAdjust="spacingAndGlyphs" textLength="112" x="291.75" y="67.0151">+claimType : String</text><text fill="#000000" font-family="sans-serif" font-size="11" lengthAdjust="spacingAndGlyphs" textLength="155" x="291.75" y="79.8198">+sub : Map&lt;String,String&gt;</text><text fill="#000000" font-family="sans-serif" font-size="11" lengthAdjust="spacingAndGlyphs" textLength="72" x="291.75" y="92.6245">+date  :Date</text><line style="stroke: #222222; stroke-width: 1.5;" x1="286.75" x2="451.75" y1="99.2188" y2="99.2188"/><text fill="#000000" font-family="sans-serif" font-size="11" lengthAdjust="spacingAndGlyphs" textLength="106" x="291.75" y="113.4292">+toJSON () : String</text><rect fill="#DADADA" filter="url(#f1)" height="86.4141" style="stroke: #222222; stroke-width: 1.5;" width="140" x="159" y="205"/><ellipse cx="175.8" cy="221" fill="#ADD1B2" rx="11" ry="11" style="stroke: #222222; stroke-width: 1.0;"/><path d="M178.7688,226.6406 Q178.1906,226.9375 177.55,227.0859 Q176.9094,227.2344 176.2063,227.2344 Q173.7063,227.2344 172.3859,225.5859 Q171.0656,223.9375 171.0656,220.8125 Q171.0656,217.6875 172.3859,216.0313 Q173.7063,214.375 176.2063,214.375 Q176.9094,214.375 177.5578,214.5313 Q178.2063,214.6875 178.7688,214.9844 L178.7688,217.7031 Q178.1438,217.125 177.55,216.8516 Q176.9563,216.5781 176.3313,216.5781 Q174.9875,216.5781 174.3,217.6484 Q173.6125,218.7188 173.6125,220.8125 Q173.6125,222.9063 174.3,223.9766 Q174.9875,225.0469 176.3313,225.0469 Q176.9563,225.0469 177.55,224.7734 Q178.1438,224.5 178.7688,223.9219 L178.7688,226.6406 Z "/><text fill="#000000" font-family="sans-serif" font-size="12" lengthAdjust="spacingAndGlyphs" textLength="104" x="190.2" y="225.1543">SetContentClaim</text><line style="stroke: #222222; stroke-width: 1.5;" x1="160" x2="298" y1="237" y2="237"/><text fill="#000000" font-family="sans-serif" font-size="11" lengthAdjust="spacingAndGlyphs" textLength="41" x="165" y="251.2104">+id: PK</text><text fill="#000000" font-family="sans-serif" font-size="11" lengthAdjust="spacingAndGlyphs" textLength="128" x="165" y="264.0151">+sub.attribute : String</text><line style="stroke: #222222; stroke-width: 1.5;" x1="160" x2="298" y1="270.6094" y2="270.6094"/><text fill="#000000" font-family="sans-serif" font-size="11" lengthAdjust="spacingAndGlyphs" textLength="106" x="165" y="284.8198">+toJSON () : String</text><rect fill="#DADADA" filter="url(#f1)" height="86.4141" style="stroke: #222222; stroke-width: 1.5;" width="151" x="44.75" y="367"/><ellipse cx="59.75" cy="383" fill="#ADD1B2" rx="11" ry="11" style="stroke: #222222; stroke-width: 1.0;"/><path d="M62.7188,388.6406 Q62.1406,388.9375 61.5,389.0859 Q60.8594,389.2344 60.1563,389.2344 Q57.6563,389.2344 56.3359,387.5859 Q55.0156,385.9375 55.0156,382.8125 Q55.0156,379.6875 56.3359,378.0313 Q57.6563,376.375 60.1563,376.375 Q60.8594,376.375 61.5078,376.5313 Q62.1563,376.6875 62.7188,376.9844 L62.7188,379.7031 Q62.0938,379.125 61.5,378.8516 Q60.9063,378.5781 60.2813,378.5781 Q58.9375,378.5781 58.25,379.6484 Q57.5625,380.7188 57.5625,382.8125 Q57.5625,384.9063 58.25,385.9766 Q58.9375,387.0469 60.2813,387.0469 Q60.9063,387.0469 61.5,386.7734 Q62.0938,386.5 62.7188,385.9219 L62.7188,388.6406 Z "/><text fill="#000000" font-family="sans-serif" font-size="12" lengthAdjust="spacingAndGlyphs" textLength="119" x="73.75" y="387.1543">Content Descriptor</text><line style="stroke: #222222; stroke-width: 1.5;" x1="45.75" x2="194.75" y1="399" y2="399"/><text fill="#000000" font-family="sans-serif" font-size="11" lengthAdjust="spacingAndGlyphs" textLength="41" x="50.75" y="413.2104">+id: PK</text><line style="stroke: #222222; stroke-width: 1.5;" x1="45.75" x2="194.75" y1="419.8047" y2="419.8047"/><text fill="#000000" font-family="sans-serif" font-size="11" lengthAdjust="spacingAndGlyphs" textLength="129" x="50.75" y="434.0151">+getLength () : integer</text><text fill="#000000" font-family="sans-serif" font-size="11" lengthAdjust="spacingAndGlyphs" textLength="106" x="50.75" y="446.8198">+toJSON () : String</text><rect fill="#DADADA" filter="url(#f1)" height="86.4141" style="stroke: #222222; stroke-width: 1.5;" width="118" x="6" y="205"/><ellipse cx="47.55" cy="221" fill="#ADD1B2" rx="11" ry="11" style="stroke: #222222; stroke-width: 1.0;"/><path d="M50.5188,226.6406 Q49.9406,226.9375 49.3,227.0859 Q48.6594,227.2344 47.9563,227.2344 Q45.4563,227.2344 44.1359,225.5859 Q42.8156,223.9375 42.8156,220.8125 Q42.8156,217.6875 44.1359,216.0313 Q45.4563,214.375 47.9563,214.375 Q48.6594,214.375 49.3078,214.5313 Q49.9563,214.6875 50.5188,214.9844 L50.5188,217.7031 Q49.8938,217.125 49.3,216.8516 Q48.7063,216.5781 48.0813,216.5781 Q46.7375,216.5781 46.05,217.6484 Q45.3625,218.7188 45.3625,220.8125 Q45.3625,222.9063 46.05,223.9766 Q46.7375,225.0469 48.0813,225.0469 Q48.7063,225.0469 49.3,224.7734 Q49.8938,224.5 50.5188,223.9219 L50.5188,226.6406 Z "/><text fill="#000000" font-family="sans-serif" font-size="12" lengthAdjust="spacingAndGlyphs" textLength="27" x="67.45" y="225.1543">Blob</text><line style="stroke: #222222; stroke-width: 1.5;" x1="7" x2="123" y1="237" y2="237"/><text fill="#000000" font-family="sans-serif" font-size="11" lengthAdjust="spacingAndGlyphs" textLength="41" x="12" y="251.2104">+id: PK</text><text fill="#000000" font-family="sans-serif" font-size="11" lengthAdjust="spacingAndGlyphs" textLength="103" x="12" y="264.0151">+content : Bytes[]</text><line style="stroke: #222222; stroke-width: 1.5;" x1="7" x2="123" y1="270.6094" y2="270.6094"/><text fill="#000000" font-family="sans-serif" font-size="11" lengthAdjust="spacingAndGlyphs" textLength="106" x="12" y="284.8198">+toJSON () : String</text><path d="M314.235,136.195 C296.379,159.407 277.134,184.426 261.457,204.806 " fill="none" style="stroke: #444444; stroke-width: 1.0;"/><polygon fill="none" points="308.873,131.684,326.615,120.1,319.97,140.22,308.873,131.684" style="stroke: #444444; stroke-width: 1.0;"/><path d="M372.213,120.27 C375.967,184.833 382.136,290.944 385.859,354.97 " fill="none" style="stroke: #444444; stroke-width: 1.0;"/><polygon fill="#444444" points="386.167,360.2679,389.6382,351.051,385.877,355.2763,381.6517,351.5151,386.167,360.2679" style="stroke: #444444; stroke-width: 1.0;"/><text fill="#000000" font-family="sans-serif" font-size="13" lengthAdjust="spacingAndGlyphs" textLength="77" x="383" y="252.0669">identified by</text><polygon fill="#000000" points="417,261.1328,420,267.1328,423,261.1328,417,261.1328" style="stroke: #000000; stroke-width: 1.0;"/><text fill="#000000" font-family="sans-serif" font-size="13" lengthAdjust="spacingAndGlyphs" textLength="49" x="332.8621" y="349.5969">+issuer</text><path d="M431.669,120.1 C458.662,143.833 490.068,171.446 516.678,194.843 " fill="none" style="stroke: #444444; stroke-width: 1.0;"/><polygon fill="#444444" points="520.568,198.263,516.4493,189.3167,516.8126,194.9619,511.1675,195.3253,520.568,198.263" style="stroke: #444444; stroke-width: 1.0;"/><text fill="#000000" font-family="sans-serif" font-size="13" lengthAdjust="spacingAndGlyphs" textLength="61" x="485" y="163.0669">describes</text><polygon fill="#000000" points="549,157.0664,555,160.0664,549,163.0664,549,157.0664" style="stroke: #000000; stroke-width: 1.0;"/><text fill="#000000" font-family="sans-serif" font-size="13" lengthAdjust="spacingAndGlyphs" textLength="85" x="423.1001" y="187.5913">+permanode</text><path d="M519.132,297.657 C497.191,316.43 472.054,337.938 449.759,357.014 " fill="none" style="stroke: #444444; stroke-width: 1.0;"/><polygon fill="#444444" points="445.919,360.2988,455.3585,357.4889,449.7188,357.049,450.1588,351.4092,445.919,360.2988" style="stroke: #444444; stroke-width: 1.0;"/><text fill="#000000" font-family="sans-serif" font-size="13" lengthAdjust="spacingAndGlyphs" textLength="49" x="399.7177" y="349.2674">+issuer</text><path d="M200.362,291.038 C185.338,313.09 166.902,340.153 151.479,362.7916 " fill="none" style="stroke: #444444; stroke-width: 1.0;"/><polygon fill="#444444" points="148.636,366.9652,157.0086,361.7787,151.4508,362.8328,150.3968,357.275,148.636,366.9652" style="stroke: #444444; stroke-width: 1.0;"/><text fill="#000000" font-family="sans-serif" font-size="13" lengthAdjust="spacingAndGlyphs" textLength="72" x="74.4787" y="356.088">+sub.value</text><path d="M83.755,303.56 C89.3782,319.918 95.5459,337.861 101.1736,354.232 " fill="none" style="stroke: #444444; stroke-width: 1.0;"/><polygon fill="#444444" points="105.5505,366.9652,107.3829,359.9908,101.6498,355.6169,99.8174,362.5913,105.5505,366.9652" style="stroke: #444444; stroke-width: 1.0;"/><polygon fill="#444444" points="79.4506,291.038,78.5933,300.8495,81.0759,295.7665,86.1589,298.249,79.4506,291.038" style="stroke: #444444; stroke-width: 1.0;"/><line style="stroke: #444444; stroke-width: 1.0;" x1="81.0759" x2="83.6767" y1="295.7665" y2="303.332"/><text fill="#000000" font-family="sans-serif" font-size="13" lengthAdjust="spacingAndGlyphs" textLength="63" x="12.4612" y="311.452">+bytesref</text></g></svg>