<?xml version="1.0" encoding="UTF-8" standalone="yes"?><svg xmlns="http://www.w3.org/2000/svg" xmlns:xlink="http://www.w3.org/1999/xlink" height="585pt" style="width:719px;height:585px;" version="1.1" viewBox="0 0 719 585" width="719pt"><defs><filter height="300%" id="f1" width="300%" x="-1" y="-1"><feGaussianBlur result="blurOut" stdDeviation="2.0"/><feColorMatrix in="blurOut" result="blurOut2" type="matrix" values="0 0 0 0 0 0 0 0 0 0 0 0 0 0 0 0 0 0 .4 0"/><feOffset dx="4.0" dy="4.0" in="blurOut2" result="blurOut3"/><feBlend in="SourceGraphic" in2="blurOut3" mode="normal"/></filter></defs><g><rect fill="#DADADA" filter="url(#f1)" height="93.5156" style="stroke: #222222; stroke-width: 1.5;" width="134" x="83.7185" y="8"/><ellipse cx="98.7185" cy="33.9531" fill="#A9DCDF" rx="11" ry="11" style="stroke: #222222; stroke-width: 1.0;"/><path d="M98.8279,29.2969 L97.6716,34.375 L99.9998,34.375 L98.8279,29.2969 Z M97.3435,27.0625 L100.3279,27.0625 L103.6873,39.4531 L101.2341,39.4531 L100.4685,36.3906 L97.1873,36.3906 L96.4373,39.4531 L93.9998,39.4531 L97.3435,27.0625 Z "/><text fill="#000000" font-family="sans-serif" font-size="12" font-style="italic" lengthAdjust="spacingAndGlyphs" textLength="92" x="117.7185" y="24.1387">&lt;&lt;Abstract&gt;&gt;</text><text fill="#000000" font-family="sans-serif" font-size="12" font-style="italic" lengthAdjust="spacingAndGlyphs" textLength="106" x="110.7185" y="38.1074">&lt;&lt;Immutable&gt;&gt;</text><text fill="#000000" font-family="sans-serif" font-size="12" font-style="italic" lengthAdjust="spacingAndGlyphs" textLength="64" x="131.7185" y="52.0762">Document</text><line style="stroke: #222222; stroke-width: 1.5;" x1="84.7185" x2="216.7185" y1="59.9063" y2="59.9063"/><text fill="#000000" font-family="sans-serif" font-size="11" lengthAdjust="spacingAndGlyphs" textLength="41" x="89.7185" y="74.1167">+id: PK</text><line style="stroke: #222222; stroke-width: 1.5;" x1="84.7185" x2="216.7185" y1="80.7109" y2="80.7109"/><text fill="#000000" font-family="sans-serif" font-size="11" font-style="italic" lengthAdjust="spacingAndGlyphs" textLength="104" x="89.7185" y="94.9214">+toJSON () : String</text><rect fill="#DADADA" filter="url(#f1)" height="86.4141" style="stroke: #222222; stroke-width: 1.5;" width="209" x="6.4685" y="490"/><ellipse cx="83.7185" cy="506" fill="#ADD1B2" rx="11" ry="11" style="stroke: #222222; stroke-width: 1.0;"/><path d="M86.6872,511.6406 Q86.1091,511.9375 85.4685,512.0859 Q84.8278,512.2344 84.1247,512.2344 Q81.6247,512.2344 80.3044,510.5859 Q78.9841,508.9375 78.9841,505.8125 Q78.9841,502.6875 80.3044,501.0313 Q81.6247,499.375 84.1247,499.375 Q84.8278,499.375 85.4763,499.5313 Q86.1247,499.6875 86.6872,499.9844 L86.6872,502.7031 Q86.0622,502.125 85.4685,501.8516 Q84.8747,501.5781 84.2497,501.5781 Q82.906,501.5781 82.2185,502.6484 Q81.531,503.7188 81.531,505.8125 Q81.531,507.9063 82.2185,508.9766 Q82.906,510.0469 84.2497,510.0469 Q84.8747,510.0469 85.4685,509.7734 Q86.0622,509.5 86.6872,508.9219 L86.6872,511.6406 Z "/><text fill="#000000" font-family="sans-serif" font-size="12" lengthAdjust="spacingAndGlyphs" textLength="46" x="104.2185" y="510.1543">Identity</text><line style="stroke: #222222; stroke-width: 1.5;" x1="7.4685" x2="214.4685" y1="522" y2="522"/><line style="stroke: #222222; stroke-width: 1.5;" x1="7.4685" x2="214.4685" y1="530" y2="530"/><text fill="#000000" font-family="sans-serif" font-size="11" lengthAdjust="spacingAndGlyphs" textLength="197" x="12.4685" y="544.2104">+sign (doc: Document) : Signature</text><text fill="#000000" font-family="sans-serif" font-size="11" lengthAdjust="spacingAndGlyphs" textLength="194" x="12.4685" y="557.0151">+verify (doc: Document) : boolean</text><text fill="#000000" font-family="sans-serif" font-size="11" lengthAdjust="spacingAndGlyphs" textLength="106" x="12.4685" y="569.8198">+toJSON () : String</text><rect fill="#DADADA" filter="url(#f1)" height="86.4141" style="stroke: #222222; stroke-width: 1.5;" width="157" x="32.4685" y="342"/><ellipse cx="57.3685" cy="358" fill="#ADD1B2" rx="11" ry="11" style="stroke: #222222; stroke-width: 1.0;"/><path d="M60.3373,363.6406 Q59.7591,363.9375 59.1185,364.0859 Q58.4779,364.2344 57.7748,364.2344 Q55.2748,364.2344 53.9544,362.5859 Q52.6341,360.9375 52.6341,357.8125 Q52.6341,354.6875 53.9544,353.0313 Q55.2748,351.375 57.7748,351.375 Q58.4779,351.375 59.1263,351.5313 Q59.7748,351.6875 60.3373,351.9844 L60.3373,354.7031 Q59.7123,354.125 59.1185,353.8516 Q58.5248,353.5781 57.8998,353.5781 Q56.556,353.5781 55.8685,354.6484 Q55.181,355.7188 55.181,357.8125 Q55.181,359.9063 55.8685,360.9766 Q56.556,362.0469 57.8998,362.0469 Q58.5248,362.0469 59.1185,361.7734 Q59.7123,361.5 60.3373,360.9219 L60.3373,363.6406 Z "/><text fill="#000000" font-family="sans-serif" font-size="12" lengthAdjust="spacingAndGlyphs" textLength="103" x="73.5685" y="362.1543">Content Handler</text><line style="stroke: #222222; stroke-width: 1.5;" x1="33.4685" x2="188.4685" y1="374" y2="374"/><text fill="#000000" font-family="sans-serif" font-size="11" lengthAdjust="spacingAndGlyphs" textLength="99" x="38.4685" y="388.2104">+random : String</text><text fill="#000000" font-family="sans-serif" font-size="11" lengthAdjust="spacingAndGlyphs" textLength="145" x="38.4685" y="401.0151">+signatures : Signature[]</text><line style="stroke: #222222; stroke-width: 1.5;" x1="33.4685" x2="188.4685" y1="407.6094" y2="407.6094"/><text fill="#000000" font-family="sans-serif" font-size="11" lengthAdjust="spacingAndGlyphs" textLength="106" x="38.4685" y="421.8198">+toJSON () : String</text><rect fill="#DADADA" filter="url(#f1)" height="99.2188" style="stroke: #222222; stroke-width: 1.5;" width="167" x="166.468" y="164.5"/><ellipse cx="229.218" cy="180.5" fill="#ADD1B2" rx="11" ry="11" style="stroke: #222222; stroke-width: 1.0;"/><path d="M232.1868,186.1406 Q231.6086,186.4375 230.968,186.5859 Q230.3274,186.7344 229.6243,186.7344 Q227.1243,186.7344 225.8039,185.0859 Q224.4836,183.4375 224.4836,180.3125 Q224.4836,177.1875 225.8039,175.5313 Q227.1243,173.875 229.6243,173.875 Q230.3274,173.875 230.9758,174.0313 Q231.6243,174.1875 232.1868,174.4844 L232.1868,177.2031 Q231.5618,176.625 230.968,176.3516 Q230.3743,176.0781 229.7493,176.0781 Q228.4055,176.0781 227.718,177.1484 Q227.0305,178.2188 227.0305,180.3125 Q227.0305,182.4063 227.718,183.4766 Q228.4055,184.5469 229.7493,184.5469 Q230.3743,184.5469 230.968,184.2734 Q231.5618,184 232.1868,183.4219 L232.1868,186.1406 Z "/><text fill="#000000" font-family="sans-serif" font-size="12" lengthAdjust="spacingAndGlyphs" textLength="33" x="249.718" y="184.6543">Claim</text><line style="stroke: #222222; stroke-width: 1.5;" x1="167.468" x2="332.468" y1="196.5" y2="196.5"/><text fill="#000000" font-family="sans-serif" font-size="11" lengthAdjust="spacingAndGlyphs" textLength="112" x="172.468" y="210.7104">+claimType : String</text><text fill="#000000" font-family="sans-serif" font-size="11" lengthAdjust="spacingAndGlyphs" textLength="155" x="172.468" y="223.5151">+sub : Map&lt;String,String&gt;</text><text fill="#000000" font-family="sans-serif" font-size="11" lengthAdjust="spacingAndGlyphs" textLength="72" x="172.468" y="236.3198">+date  :Date</text><line style="stroke: #222222; stroke-width: 1.5;" x1="167.468" x2="332.468" y1="242.9141" y2="242.9141"/><text fill="#000000" font-family="sans-serif" font-size="11" lengthAdjust="spacingAndGlyphs" textLength="106" x="172.468" y="257.1245">+toJSON () : String</text><rect fill="#DADADA" filter="url(#f1)" height="73.6094" style="stroke: #222222; stroke-width: 1.5;" width="140" x="387.718" y="348"/><ellipse cx="404.518" cy="364" fill="#ADD1B2" rx="11" ry="11" style="stroke: #222222; stroke-width: 1.0;"/><path d="M407.4868,369.6406 Q406.9086,369.9375 406.268,370.0859 Q405.6274,370.2344 404.9243,370.2344 Q402.4243,370.2344 401.1039,368.5859 Q399.7836,366.9375 399.7836,363.8125 Q399.7836,360.6875 401.1039,359.0313 Q402.4243,357.375 404.9243,357.375 Q405.6274,357.375 406.2758,357.5313 Q406.9243,357.6875 407.4868,357.9844 L407.4868,360.7031 Q406.8618,360.125 406.268,359.8516 Q405.6743,359.5781 405.0493,359.5781 Q403.7055,359.5781 403.018,360.6484 Q402.3305,361.7188 402.3305,363.8125 Q402.3305,365.9063 403.018,366.9766 Q403.7055,368.0469 405.0493,368.0469 Q405.6743,368.0469 406.268,367.7734 Q406.8618,367.5 407.4868,366.9219 L407.4868,369.6406 Z "/><text fill="#000000" font-family="sans-serif" font-size="12" lengthAdjust="spacingAndGlyphs" textLength="104" x="418.918" y="368.1543">SetContentClaim</text><line style="stroke: #222222; stroke-width: 1.5;" x1="388.718" x2="526.718" y1="380" y2="380"/><text fill="#000000" font-family="sans-serif" font-size="11" lengthAdjust="spacingAndGlyphs" textLength="128" x="393.718" y="394.2104">+sub.attribute : String</text><line style="stroke: #222222; stroke-width: 1.5;" x1="388.718" x2="526.718" y1="400.8047" y2="400.8047"/><text fill="#000000" font-family="sans-serif" font-size="11" lengthAdjust="spacingAndGlyphs" textLength="106" x="393.718" y="415.0151">+toJSON () : String</text><rect fill="#DADADA" filter="url(#f1)" height="73.6094" style="stroke: #222222; stroke-width: 1.5;" width="151" x="505.468" y="496"/><ellipse cx="520.468" cy="512" fill="#ADD1B2" rx="11" ry="11" style="stroke: #222222; stroke-width: 1.0;"/><path d="M523.4368,517.6406 Q522.8586,517.9375 522.218,518.0859 Q521.5774,518.2344 520.8743,518.2344 Q518.3743,518.2344 517.0539,516.5859 Q515.7336,514.9375 515.7336,511.8125 Q515.7336,508.6875 517.0539,507.0313 Q518.3743,505.375 520.8743,505.375 Q521.5774,505.375 522.2258,505.5313 Q522.8743,505.6875 523.4368,505.9844 L523.4368,508.7031 Q522.8118,508.125 522.218,507.8516 Q521.6243,507.5781 520.9993,507.5781 Q519.6555,507.5781 518.968,508.6484 Q518.2805,509.7188 518.2805,511.8125 Q518.2805,513.9063 518.968,514.9766 Q519.6555,516.0469 520.9993,516.0469 Q521.6243,516.0469 522.218,515.7734 Q522.8118,515.5 523.4368,514.9219 L523.4368,517.6406 Z "/><text fill="#000000" font-family="sans-serif" font-size="12" lengthAdjust="spacingAndGlyphs" textLength="119" x="534.468" y="516.1543">Content Descriptor</text><line style="stroke: #222222; stroke-width: 1.5;" x1="506.468" x2="655.468" y1="528" y2="528"/><line style="stroke: #222222; stroke-width: 1.5;" x1="506.468" x2="655.468" y1="536" y2="536"/><text fill="#000000" font-family="sans-serif" font-size="11" lengthAdjust="spacingAndGlyphs" textLength="129" x="511.468" y="550.2104">+getLength () : integer</text><text fill="#000000" font-family="sans-serif" font-size="11" lengthAdjust="spacingAndGlyphs" textLength="106" x="511.468" y="563.0151">+toJSON () : String</text><rect fill="#DADADA" filter="url(#f1)" height="73.6094" style="stroke: #222222; stroke-width: 1.5;" width="118" x="592.718" y="18"/><ellipse cx="634.268" cy="34" fill="#ADD1B2" rx="11" ry="11" style="stroke: #222222; stroke-width: 1.0;"/><path d="M637.2367,39.6406 Q636.6586,39.9375 636.018,40.0859 Q635.3774,40.2344 634.6742,40.2344 Q632.1742,40.2344 630.8539,38.5859 Q629.5336,36.9375 629.5336,33.8125 Q629.5336,30.6875 630.8539,29.0313 Q632.1742,27.375 634.6742,27.375 Q635.3774,27.375 636.0258,27.5313 Q636.6742,27.6875 637.2367,27.9844 L637.2367,30.7031 Q636.6117,30.125 636.018,29.8516 Q635.4242,29.5781 634.7992,29.5781 Q633.4555,29.5781 632.768,30.6484 Q632.0805,31.7188 632.0805,33.8125 Q632.0805,35.9063 632.768,36.9766 Q633.4555,38.0469 634.7992,38.0469 Q635.4242,38.0469 636.018,37.7734 Q636.6117,37.5 637.2367,36.9219 L637.2367,39.6406 Z "/><text fill="#000000" font-family="sans-serif" font-size="12" lengthAdjust="spacingAndGlyphs" textLength="27" x="654.168" y="38.1543">Blob</text><line style="stroke: #222222; stroke-width: 1.5;" x1="593.718" x2="709.718" y1="50" y2="50"/><text fill="#000000" font-family="sans-serif" font-size="11" lengthAdjust="spacingAndGlyphs" textLength="103" x="598.718" y="64.2104">+content : Bytes[]</text><line style="stroke: #222222; stroke-width: 1.5;" x1="593.718" x2="709.718" y1="70.8047" y2="70.8047"/><text fill="#000000" font-family="sans-serif" font-size="11" lengthAdjust="spacingAndGlyphs" textLength="106" x="598.718" y="85.0151">+toJSON () : String</text><path d="M142.628,122.344 C134.63,187.924 122.636,286.273 115.86,341.836 " fill="none" style="stroke: #444444; stroke-width: 1.0;"/><polygon fill="none" points="135.703,121.304,145.072,102.299,149.6,122.999,135.703,121.304" style="stroke: #444444; stroke-width: 1.0;"/><path d="M190.677,119.368 C200.132,134.362 210.069,150.122 219.038,164.346 " fill="none" style="stroke: #444444; stroke-width: 1.0;"/><polygon fill="none" points="184.633,122.907,179.886,102.256,196.475,115.44,184.633,122.907" style="stroke: #444444; stroke-width: 1.0;"/><path d="M236.323,91.103 C330.345,134.689 477.086,218.674 545.718,342 C572.712,390.505 579.432,455.704 580.809,495.7392 " fill="none" style="stroke: #444444; stroke-width: 1.0;"/><polygon fill="none" points="233.306,97.422,217.972,82.798,239.079,84.667,233.306,97.422" style="stroke: #444444; stroke-width: 1.0;"/><path d="M237.869,55 C356.041,55 474.214,55 592.386,55 " fill="none" style="stroke: #444444; stroke-width: 1.0;"/><polygon fill="none" points="237.747,62,217.747,55,237.747,48,237.747,62" style="stroke: #444444; stroke-width: 1.0;"/><path d="M110.247,119.705 C77.1809,175.765 33.0252,260.873 14.7185,342 C6.305,379.285 0.8002,392.402 14.7185,428 C23.8898,451.457 41.1069,472.803 58.4566,489.9672 " fill="none" style="stroke: #444444; stroke-width: 1.0;"/><polygon fill="none" points="104.4594,115.745,120.763,102.21,116.458,122.958,104.4594,115.745" style="stroke: #444444; stroke-width: 1.0;"/><path d="M325.131,276.273 C354.645,300.253 387.489,326.939 413.105,347.751 " fill="none" style="stroke: #444444; stroke-width: 1.0;"/><polygon fill="none" points="320.71,281.7,309.602,263.655,329.538,270.834,320.71,281.7" style="stroke: #444444; stroke-width: 1.0;"/><path d="M247.86,263.509 C244.309,308.623 234.201,376.438 205.718,428 C194.121,448.995 177.465,469.169 161.329,486.0683 " fill="none" style="stroke: #444444; stroke-width: 1.0;"/><polygon fill="#444444" points="157.679,489.8454,166.8094,486.1527,161.1534,486.2497,161.0563,480.5937,157.679,489.8454" style="stroke: #444444; stroke-width: 1.0;"/><text fill="#000000" font-family="sans-serif" font-size="13" lengthAdjust="spacingAndGlyphs" textLength="77" x="237.718" y="389.0669">identified by</text><polygon fill="#000000" points="271.718,398.1328,274.718,404.1328,277.718,398.1328,271.718,398.1328" style="stroke: #000000; stroke-width: 1.0;"/><text fill="#000000" font-family="sans-serif" font-size="13" lengthAdjust="spacingAndGlyphs" textLength="49" x="167.2479" y="478.9519">+issuer</text><path d="M185.45,263.716 C175.153,273.116 165.133,283.369 156.718,294 C146.542,306.856 137.667,322.317 130.498,336.769 " fill="none" style="stroke: #444444; stroke-width: 1.0;"/><polygon fill="#444444" points="128.132,341.626,135.6694,335.2867,130.3217,337.131,128.4774,331.7832,128.132,341.626" style="stroke: #444444; stroke-width: 1.0;"/><text fill="#000000" font-family="sans-serif" font-size="13" lengthAdjust="spacingAndGlyphs" textLength="61" x="157.718" y="307.0669">describes</text><polygon fill="#000000" points="183.718,316.1328,186.718,322.1328,189.718,316.1328,183.718,316.1328" style="stroke: #000000; stroke-width: 1.0;"/><text fill="#000000" font-family="sans-serif" font-size="13" lengthAdjust="spacingAndGlyphs" textLength="85" x="38.7582" y="331.0285">+permanode</text><path d="M110.718,428.229 C110.718,445.935 110.718,466.596 110.718,484.8007 " fill="none" style="stroke: #444444; stroke-width: 1.0;"/><polygon fill="#444444" points="110.718,489.8657,114.718,480.8657,110.718,484.8657,106.718,480.8657,110.718,489.8657" style="stroke: #444444; stroke-width: 1.0;"/><text fill="#000000" font-family="sans-serif" font-size="13" lengthAdjust="spacingAndGlyphs" textLength="49" x="57.2583" y="478.9757">+issuer</text><path d="M488.123,422.09 C505.937,443.236 528.476,469.988 546.856,491.8055 " fill="none" style="stroke: #444444; stroke-width: 1.0;"/><polygon fill="#444444" points="550.237,495.8193,547.4961,486.3595,547.015,491.9959,541.3786,491.5148,550.237,495.8193" style="stroke: #444444; stroke-width: 1.0;"/><text fill="#000000" font-family="sans-serif" font-size="13" lengthAdjust="spacingAndGlyphs" textLength="72" x="466.8657" y="484.9314">+sub.value</text><path d="M649.95,105.596 C646.372,182.431 635.943,334.468 606.718,460 C604.921,467.722 602.549,475.755 599.968,483.5343 " fill="none" style="stroke: #444444; stroke-width: 1.0;"/><polygon fill="#444444" points="595.645,495.8746,601.4039,491.5347,599.6128,484.5496,593.8539,488.8895,595.645,495.8746" style="stroke: #444444; stroke-width: 1.0;"/><polygon fill="#444444" points="650.541,92.148,646.1493,100.9635,650.3212,97.1432,654.1416,101.3151,650.541,92.148" style="stroke: #444444; stroke-width: 1.0;"/><line style="stroke: #444444; stroke-width: 1.0;" x1="650.3212" x2="649.97" y1="97.1432" y2="105.135"/><text fill="#000000" font-family="sans-serif" font-size="13" lengthAdjust="spacingAndGlyphs" textLength="63" x="580.9632" y="111.6531">+bytesref</text></g></svg>