<?xml version="1.0" encoding="UTF-8" standalone="yes"?><svg xmlns="http://www.w3.org/2000/svg" xmlns:xlink="http://www.w3.org/1999/xlink" height="222pt" style="width:488px;height:222px;" version="1.1" viewBox="0 0 488 222" width="488pt"><defs><filter height="300%" id="f1" width="300%" x="-1" y="-1"><feGaussianBlur result="blurOut" stdDeviation="2.0"/><feColorMatrix in="blurOut" result="blurOut2" type="matrix" values="0 0 0 0 0 0 0 0 0 0 0 0 0 0 0 0 0 0 .4 0"/><feOffset dx="4.0" dy="4.0" in="blurOut2" result="blurOut3"/><feBlend in="SourceGraphic" in2="blurOut3" mode="normal"/></filter></defs><g><rect fill="#DADADA" filter="url(#f1)" height="60.8906" style="stroke: #222222; stroke-width: 1.5;" width="153" x="20.1165" y="13.5"/><text fill="#000000" font-family="sans-serif" font-size="12" lengthAdjust="spacingAndGlyphs" textLength="32" x="80.6165" y="26.6387">claim</text><line style="stroke: #222222; stroke-width: 1.5;" x1="21.1165" x2="172.1165" y1="31.4688" y2="31.4688"/><text fill="#000000" font-family="sans-serif" font-size="10" lengthAdjust="spacingAndGlyphs" textLength="109" x="26.1165" y="44.751">+id = "sha1-bbbbbbb"</text><text fill="#000000" font-family="sans-serif" font-size="10" lengthAdjust="spacingAndGlyphs" textLength="141" x="26.1165" y="56.3916">+claimType = "set-attribute"</text><text fill="#000000" font-family="sans-serif" font-size="10" lengthAdjust="spacingAndGlyphs" textLength="131" x="26.1165" y="68.0322">+sub.attribute = "content"</text><rect fill="#DADADA" filter="url(#f1)" height="72.5313" style="stroke: #222222; stroke-width: 1.5;" width="132" x="24.3665" y="140.5"/><text fill="#000000" font-family="sans-serif" font-size="12" lengthAdjust="spacingAndGlyphs" textLength="98" x="41.3665" y="153.6387">contentHandler</text><line style="stroke: #222222; stroke-width: 1.5;" x1="25.3665" x2="155.3665" y1="158.4688" y2="158.4688"/><text fill="#000000" font-family="sans-serif" font-size="10" lengthAdjust="spacingAndGlyphs" textLength="109" x="30.3665" y="171.751">+id = "sha1-aaaaaaa"</text><text fill="#000000" font-family="sans-serif" font-size="10" lengthAdjust="spacingAndGlyphs" textLength="120" x="30.3665" y="183.3916">+random = "94388jeroi"</text><text fill="#000000" font-family="sans-serif" font-size="10" lengthAdjust="spacingAndGlyphs" textLength="6" x="30.3665" y="195.0322">..</text><text fill="#000000" font-family="sans-serif" font-size="10" lengthAdjust="spacingAndGlyphs" textLength="88" x="30.3665" y="206.6729">Signature omitted</text><rect fill="#DADADA" filter="url(#f1)" height="49.25" style="stroke: #222222; stroke-width: 1.5;" width="287" x="192.117" y="152.5"/><text fill="#000000" font-family="sans-serif" font-size="12" lengthAdjust="spacingAndGlyphs" textLength="49" x="311.117" y="165.6387">content</text><line style="stroke: #222222; stroke-width: 1.5;" x1="193.117" x2="478.117" y1="170.4688" y2="170.4688"/><text fill="#000000" font-family="sans-serif" font-size="10" lengthAdjust="spacingAndGlyphs" textLength="102" x="198.117" y="183.751">+id = "sha1-ccccccc"</text><text fill="#000000" font-family="sans-serif" font-size="10" lengthAdjust="spacingAndGlyphs" textLength="275" x="198.117" y="195.3916">+bytesref = { content: "sha1-b10b0000", length: 1024 }</text><polygon fill="#FBFB77" filter="url(#f1)" points="215.117,8.5,215.117,79.0313,456.117,79.0313,456.117,18.5,446.117,8.5,215.117,8.5" style="stroke: #A80036; stroke-width: 1.0;"/><polygon fill="#FBFB77" points="215.117,8.5,215.117,79.0313,331.367,79.0313,335.367,147.1069,339.367,79.0313,456.117,79.0313,456.117,18.5,446.117,8.5,215.117,8.5" style="stroke: #A80036; stroke-width: 1.0;"/><line style="stroke: #A80036; stroke-width: 1.0;" x1="446.117" x2="446.117" y1="8.5" y2="18.5"/><line style="stroke: #A80036; stroke-width: 1.0;" x1="456.117" x2="446.117" y1="18.5" y2="18.5"/><text fill="#000000" font-family="sans-serif" font-size="13" lengthAdjust="spacingAndGlyphs" textLength="220" x="221.117" y="25.5669">"We asume that sha1-b10b0000 is</text><text fill="#000000" font-family="sans-serif" font-size="13" lengthAdjust="spacingAndGlyphs" textLength="179" x="221.117" y="40.6997">a valid hash of a blob entity,</text><text fill="#000000" font-family="sans-serif" font-size="13" lengthAdjust="spacingAndGlyphs" textLength="184" x="221.117" y="55.8325">Not shown here for simplicity</text><text fill="#000000" font-family="sans-serif" font-size="13" lengthAdjust="spacingAndGlyphs" textLength="102" x="221.117" y="70.9653">in the diagram."</text><path d="M95.005,74.726 C94.1897,92.528 93.1413,115.4169 92.2476,134.9292 " fill="none" style="stroke: #444444; stroke-width: 1.0;"/><polygon fill="#444444" points="92,140.3362,96.4078,131.5287,92.2289,135.3414,88.4161,131.1625,92,140.3362" style="stroke: #444444; stroke-width: 1.0;"/><text fill="#000000" font-family="sans-serif" font-size="13" lengthAdjust="spacingAndGlyphs" textLength="85" x="-0.4108" y="129.5334">+permanode</text><path d="M150.301,74.562 C191.578,97.187 247.972,128.0974 287.624,149.8318 " fill="none" style="stroke: #444444; stroke-width: 1.0;"/><polygon fill="#444444" points="292.375,152.4356,286.4068,144.601,287.9909,150.0316,282.5603,151.6156,292.375,152.4356" style="stroke: #444444; stroke-width: 1.0;"/><text fill="#000000" font-family="sans-serif" font-size="13" lengthAdjust="spacingAndGlyphs" textLength="72" x="201.8221" y="141.2568">+sub.value</text></g></svg>