<?xml version="1.0" encoding="UTF-8" standalone="no"?>
<!-- Created with Inkscape (http://www.inkscape.org/) -->
<svg xmlns:dc="http://purl.org/dc/elements/1.1/" xmlns:cc="http://creativecommons.org/ns#" xmlns:rdf="http://www.w3.org/1999/02/22-rdf-syntax-ns#" xmlns:svg="http://www.w3.org/2000/svg" xmlns="http://www.w3.org/2000/svg" xmlns:sodipodi="http://sodipodi.sourceforge.net/DTD/sodipodi-0.dtd" xmlns:inkscape="http://www.inkscape.org/namespaces/inkscape" version="1.1" width="366.25" height="195" id="svg4547" xml:space="preserve" inkscape:version="0.48.2 r9819" sodipodi:docname="Dht_example.svg"><sodipodi:namedview pagecolor="#ffffff" bordercolor="#666666" borderopacity="1" objecttolerance="10" gridtolerance="10" guidetolerance="10" inkscape:pageopacity="0" inkscape:pageshadow="2" inkscape:window-width="1920" inkscape:window-height="948" id="namedview3149" showgrid="false" inkscape:zoom="3.8974359" inkscape:cx="183.125" inkscape:cy="97.5" inkscape:window-x="0" inkscape:window-y="0" inkscape:window-maximized="1" inkscape:current-layer="svg4547"/><metadata id="metadata4553"><rdf:RDF><cc:Work rdf:about=""><dc:format>image/svg+xml</dc:format><dc:type rdf:resource="http://purl.org/dc/dcmitype/StillImage"/><dc:title/></cc:Work></rdf:RDF></metadata><defs id="defs4551"/><g id="g4557" transform="matrix(0.125,0,0,-0.125,0,195)"><path inkscape:connector-curvature="0" style="fill:#cccccc;fill-opacity:1;fill-rule:nonzero;stroke:none" id="path4559" d="m 1358.01,666.34 c 0,353.56 -304,640.17 -679.014,640.17 C 303.984,1306.51 -0.0195313,1019.9 -0.0195313,666.34 -0.0195313,312.777 303.984,26.168 678.996,26.168 c 375.014,0 679.014,286.609 679.014,640.172"/><path inkscape:connector-curvature="0" style="fill:#cccccc;fill-opacity:1;fill-rule:nonzero;stroke:none" id="path4561" d="m 2120.36,453.738 c 0,187.508 -169.4,339.508 -378.36,339.508 -208.96,0 -378.35,-152 -378.35,-339.508 0,-187.508 169.39,-339.508 378.35,-339.508 208.96,0 378.36,152 378.36,339.508"/><path inkscape:connector-curvature="0" style="fill:#cccccc;fill-opacity:1;fill-rule:nonzero;stroke:none" id="path4563" d="m 2929.66,268.605 c 0,68.84 -55.81,124.645 -124.65,124.645 -68.84,0 -124.65,-55.805 -124.65,-124.645 0,-68.843 55.81,-124.648 124.65,-124.648 68.84,0 124.65,55.805 124.65,124.648"/><path inkscape:connector-curvature="0" style="fill:none;stroke:#000000;stroke-width:15.94040012;stroke-linecap:round;stroke-linejoin:miter;stroke-miterlimit:10;stroke-opacity:1;stroke-dasharray:none" id="path4565" d="M 1316.8,1544.21 678.996,1119.01"/><path inkscape:connector-curvature="0" style="fill:none;stroke:#000000;stroke-width:15.94040012;stroke-linecap:round;stroke-linejoin:miter;stroke-miterlimit:10;stroke-opacity:1;stroke-dasharray:none" id="path4567" d="M 678.996,1119.01 466.395,693.805"/><path inkscape:connector-curvature="0" style="fill:#ffffff;fill-opacity:1;fill-rule:nonzero;stroke:none" id="path4569" d="m 300.758,268.605 c 0,25.934 -21.028,46.961 -46.961,46.961 -25.938,0 -46.965,-21.027 -46.965,-46.961 0,-25.937 21.027,-46.964 46.965,-46.964 25.933,0 46.961,21.027 46.961,46.964"/><path inkscape:connector-curvature="0" style="fill:none;stroke:#000000;stroke-width:15.94040012;stroke-linecap:round;stroke-linejoin:miter;stroke-miterlimit:10;stroke-opacity:1;stroke-dasharray:none" id="path4571" d="m 300.758,268.605 c 0,25.934 -21.028,46.961 -46.961,46.961 -25.938,0 -46.965,-21.027 -46.965,-46.961 0,-25.937 21.027,-46.964 46.965,-46.964 25.933,0 46.961,21.027 46.961,46.964 z"/><path inkscape:connector-curvature="0" style="fill:none;stroke:#000000;stroke-width:15.94040012;stroke-linecap:round;stroke-linejoin:miter;stroke-miterlimit:10;stroke-opacity:1;stroke-dasharray:none" id="path4573" d="M 466.395,693.805 278.363,317.738"/><g id="g4575" transform="scale(10,10)"><text sodipodi:linespacing="125%" style="font-size:12px;font-style:normal;font-variant:normal;font-weight:normal;font-stretch:normal;text-align:start;line-height:125%;writing-mode:lr-tb;text-anchor:start;font-family:Times New Roman;-inkscape-font-specification:'Times New Roman,'" id="text4577" transform="matrix(1,0,0,-1,28.1398,54.816)"><tspan style="font-size:12px;font-style:normal;font-variant:normal;font-weight:normal;font-stretch:normal;text-align:start;line-height:125%;writing-mode:lr-tb;text-anchor:start;fill:#000000;fill-opacity:1;fill-rule:nonzero;stroke:none;font-family:Times New Roman;-inkscape-font-specification:'Times New Roman,'" id="tspan4579" y="0" x="0">0</tspan></text>

</g><path inkscape:connector-curvature="0" style="fill:#ffffff;fill-opacity:1;fill-rule:nonzero;stroke:none" id="path4581" d="m 725.961,268.605 c 0,25.934 -21.027,46.961 -46.965,46.961 -25.937,0 -46.961,-21.027 -46.961,-46.961 0,-25.937 21.024,-46.964 46.961,-46.964 25.938,0 46.965,21.027 46.965,46.964"/><path inkscape:connector-curvature="0" style="fill:none;stroke:#000000;stroke-width:15.94040012;stroke-linecap:round;stroke-linejoin:miter;stroke-miterlimit:10;stroke-opacity:1;stroke-dasharray:none" id="path4583" d="m 725.961,268.605 c 0,25.934 -21.027,46.961 -46.965,46.961 -25.937,0 -46.961,-21.027 -46.961,-46.961 0,-25.937 21.024,-46.964 46.961,-46.964 25.938,0 46.965,21.027 46.965,46.964 z"/><path inkscape:connector-curvature="0" style="fill:none;stroke:#000000;stroke-width:15.94040012;stroke-linecap:round;stroke-linejoin:miter;stroke-miterlimit:10;stroke-opacity:1;stroke-dasharray:none" id="path4585" d="M 466.395,693.805 654.43,317.738"/><g id="g4587" transform="scale(10,10)"><text sodipodi:linespacing="125%" style="font-size:12px;font-style:normal;font-variant:normal;font-weight:normal;font-stretch:normal;text-align:start;line-height:125%;writing-mode:lr-tb;text-anchor:start;font-family:Times New Roman;-inkscape-font-specification:'Times New Roman,'" id="text4589" transform="matrix(1,0,0,-1,60.1602,54.6961)"><tspan style="font-size:12px;font-style:normal;font-variant:normal;font-weight:normal;font-stretch:normal;text-align:start;line-height:125%;writing-mode:lr-tb;text-anchor:start;fill:#000000;fill-opacity:1;fill-rule:nonzero;stroke:none;font-family:Times New Roman;-inkscape-font-specification:'Times New Roman,'" id="tspan4591" y="0" x="0">1</tspan><tspan style="font-size:12px;font-style:normal;font-variant:normal;font-weight:normal;font-stretch:normal;text-align:start;line-height:125%;writing-mode:lr-tb;text-anchor:start;fill:#000000;fill-opacity:1;fill-rule:nonzero;stroke:none;font-family:Times New Roman;-inkscape-font-specification:'Times New Roman,'" id="tspan4593" y="-40.1828" x="-11.9883">0</tspan></text>

</g><path inkscape:connector-curvature="0" style="fill:none;stroke:#000000;stroke-width:15.94040012;stroke-linecap:round;stroke-linejoin:miter;stroke-miterlimit:10;stroke-opacity:1;stroke-dasharray:none" id="path4595" d="M 678.996,1119.01 891.598,693.805"/><path inkscape:connector-curvature="0" style="fill:#ffffff;fill-opacity:1;fill-rule:nonzero;stroke:none" id="path4597" d="m 1151.16,268.605 c 0,25.934 -21.02,46.961 -46.96,46.961 -25.94,0 -46.96,-21.027 -46.96,-46.961 0,-25.937 21.02,-46.964 46.96,-46.964 25.94,0 46.96,21.027 46.96,46.964"/><path inkscape:connector-curvature="0" style="fill:none;stroke:#000000;stroke-width:15.94040012;stroke-linecap:round;stroke-linejoin:miter;stroke-miterlimit:10;stroke-opacity:1;stroke-dasharray:none" id="path4599" d="m 1151.16,268.605 c 0,25.934 -21.02,46.961 -46.96,46.961 -25.94,0 -46.96,-21.027 -46.96,-46.961 0,-25.937 21.02,-46.964 46.96,-46.964 25.94,0 46.96,21.027 46.96,46.964 z"/><path inkscape:connector-curvature="0" style="fill:none;stroke:#000000;stroke-width:15.94040012;stroke-linecap:round;stroke-linejoin:miter;stroke-miterlimit:10;stroke-opacity:1;stroke-dasharray:none" id="path4601" d="M 891.598,693.805 1079.63,317.738"/><g id="g4603" transform="scale(10,10)"><text sodipodi:linespacing="125%" style="font-size:12px;font-style:normal;font-variant:normal;font-weight:normal;font-stretch:normal;text-align:start;line-height:125%;writing-mode:lr-tb;text-anchor:start;font-family:Times New Roman;-inkscape-font-specification:'Times New Roman,'" id="text4605" transform="matrix(1,0,0,-1,82.648,94.759)"><tspan style="font-size:12px;font-style:normal;font-variant:normal;font-weight:normal;font-stretch:normal;text-align:start;line-height:125%;writing-mode:lr-tb;text-anchor:start;fill:#000000;fill-opacity:1;fill-rule:nonzero;stroke:none;font-family:Times New Roman;-inkscape-font-specification:'Times New Roman,'" id="tspan4607" y="0" x="0">1</tspan><tspan style="font-size:12px;font-style:normal;font-variant:normal;font-weight:normal;font-stretch:normal;text-align:start;line-height:125%;writing-mode:lr-tb;text-anchor:start;fill:#000000;fill-opacity:1;fill-rule:nonzero;stroke:none;font-family:Times New Roman;-inkscape-font-specification:'Times New Roman,'" id="tspan4609" y="-42.639099" x="8.0429697">0</tspan></text>

</g><path inkscape:connector-curvature="0" style="fill:none;stroke:#000000;stroke-width:15.94040012;stroke-linecap:round;stroke-linejoin:miter;stroke-miterlimit:10;stroke-opacity:1;stroke-dasharray:none" id="path4611" d="m 1316.8,1544.21 637.81,-425.2"/><path inkscape:connector-curvature="0" style="fill:none;stroke:#000000;stroke-width:15.94040012;stroke-linecap:round;stroke-linejoin:miter;stroke-miterlimit:10;stroke-opacity:1;stroke-dasharray:none" id="path4613" d="M 1954.61,1119.01 1742,693.805"/><path inkscape:connector-curvature="0" style="fill:#ffffff;fill-opacity:1;fill-rule:nonzero;stroke:none" id="path4615" d="m 1576.36,268.605 c 0,25.934 -21.02,46.961 -46.96,46.961 -25.94,0 -46.96,-21.027 -46.96,-46.961 0,-25.937 21.02,-46.964 46.96,-46.964 25.94,0 46.96,21.027 46.96,46.964"/><path inkscape:connector-curvature="0" style="fill:none;stroke:#000000;stroke-width:15.94040012;stroke-linecap:round;stroke-linejoin:miter;stroke-miterlimit:10;stroke-opacity:1;stroke-dasharray:none" id="path4617" d="m 1576.36,268.605 c 0,25.934 -21.02,46.961 -46.96,46.961 -25.94,0 -46.96,-21.027 -46.96,-46.961 0,-25.937 21.02,-46.964 46.96,-46.964 25.94,0 46.96,21.027 46.96,46.964 z"/><path inkscape:connector-curvature="0" style="fill:none;stroke:#000000;stroke-width:15.94040012;stroke-linecap:round;stroke-linejoin:miter;stroke-miterlimit:10;stroke-opacity:1;stroke-dasharray:none" id="path4619" d="M 1742,693.805 1553.97,317.738"/><g id="g4621" transform="scale(10,10)"><text sodipodi:linespacing="125%" style="font-size:12px;font-style:normal;font-variant:normal;font-weight:normal;font-stretch:normal;text-align:start;line-height:125%;writing-mode:lr-tb;text-anchor:start;font-family:Times New Roman;-inkscape-font-specification:'Times New Roman,'" id="text4623" transform="matrix(1,0,0,-1,155.699,54.816)"><tspan style="font-size:12px;font-style:normal;font-variant:normal;font-weight:normal;font-stretch:normal;text-align:start;line-height:125%;writing-mode:lr-tb;text-anchor:start;fill:#000000;fill-opacity:1;fill-rule:nonzero;stroke:none;font-family:Times New Roman;-inkscape-font-specification:'Times New Roman,'" id="tspan4625" y="0" x="0">0</tspan></text>

</g><path inkscape:connector-curvature="0" style="fill:#ffffff;fill-opacity:1;fill-rule:nonzero;stroke:none" id="path4627" d="m 2001.57,268.605 c 0,25.934 -21.03,46.961 -46.96,46.961 -25.94,0 -46.97,-21.027 -46.97,-46.961 0,-25.937 21.03,-46.964 46.97,-46.964 25.93,0 46.96,21.027 46.96,46.964"/><path inkscape:connector-curvature="0" style="fill:none;stroke:#000000;stroke-width:15.94040012;stroke-linecap:round;stroke-linejoin:miter;stroke-miterlimit:10;stroke-opacity:1;stroke-dasharray:none" id="path4629" d="m 2001.57,268.605 c 0,25.934 -21.03,46.961 -46.96,46.961 -25.94,0 -46.97,-21.027 -46.97,-46.961 0,-25.937 21.03,-46.964 46.97,-46.964 25.93,0 46.96,21.027 46.96,46.964 z"/><path inkscape:connector-curvature="0" style="fill:none;stroke:#000000;stroke-width:15.94040012;stroke-linecap:round;stroke-linejoin:miter;stroke-miterlimit:10;stroke-opacity:1;stroke-dasharray:none" id="path4631" d="M 1742,693.805 1930.04,317.738"/><g id="g4633" transform="scale(10,10)"><text sodipodi:linespacing="125%" style="font-size:12px;font-style:normal;font-variant:normal;font-weight:normal;font-stretch:normal;text-align:start;line-height:125%;writing-mode:lr-tb;text-anchor:start;font-family:Times New Roman;-inkscape-font-specification:'Times New Roman,'" id="text4635" transform="matrix(1,0,0,-1,187.719,54.6961)"><tspan style="font-size:12px;font-style:normal;font-variant:normal;font-weight:normal;font-stretch:normal;text-align:start;line-height:125%;writing-mode:lr-tb;text-anchor:start;fill:#000000;fill-opacity:1;fill-rule:nonzero;stroke:none;font-family:Times New Roman;-inkscape-font-specification:'Times New Roman,'" id="tspan4637" y="0" x="0">1</tspan><tspan style="font-size:12px;font-style:normal;font-variant:normal;font-weight:normal;font-stretch:normal;text-align:start;line-height:125%;writing-mode:lr-tb;text-anchor:start;fill:#000000;fill-opacity:1;fill-rule:nonzero;stroke:none;font-family:Times New Roman;-inkscape-font-specification:'Times New Roman,'" id="tspan4639" y="-40.1828" x="-11.9883">0</tspan></text>

</g><path inkscape:connector-curvature="0" style="fill:none;stroke:#000000;stroke-width:15.94040012;stroke-linecap:round;stroke-linejoin:miter;stroke-miterlimit:10;stroke-opacity:1;stroke-dasharray:none" id="path4641" d="m 1954.61,1119.01 637.8,-425.205"/><path inkscape:connector-curvature="0" style="fill:#000000;fill-opacity:1;fill-rule:nonzero;stroke:none" id="path4643" d="m 2426.77,268.605 c 0,25.934 -21.03,46.961 -46.97,46.961 -25.93,0 -46.96,-21.027 -46.96,-46.961 0,-25.937 21.03,-46.964 46.96,-46.964 25.94,0 46.97,21.027 46.97,46.964"/><path inkscape:connector-curvature="0" style="fill:none;stroke:#000000;stroke-width:15.94040012;stroke-linecap:round;stroke-linejoin:miter;stroke-miterlimit:10;stroke-opacity:1;stroke-dasharray:none" id="path4645" d="m 2426.77,268.605 c 0,25.934 -21.03,46.961 -46.97,46.961 -25.93,0 -46.96,-21.027 -46.96,-46.961 0,-25.937 21.03,-46.964 46.96,-46.964 25.94,0 46.97,21.027 46.97,46.964 z"/><path inkscape:connector-curvature="0" style="fill:none;stroke:#000000;stroke-width:15.94040012;stroke-linecap:round;stroke-linejoin:miter;stroke-miterlimit:10;stroke-opacity:1;stroke-dasharray:none" id="path4647" d="M 2592.41,693.805 2404.38,317.738"/><g id="g4649" transform="scale(10,10)"><text sodipodi:linespacing="125%" style="font-size:12px;font-style:normal;font-variant:normal;font-weight:normal;font-stretch:normal;text-align:start;line-height:125%;writing-mode:lr-tb;text-anchor:start;font-family:Times New Roman;-inkscape-font-specification:'Times New Roman,'" id="text4651" transform="matrix(1,0,0,-1,240.739,54.816)"><tspan style="font-size:12px;font-style:normal;font-variant:normal;font-weight:normal;font-stretch:normal;text-align:start;line-height:125%;writing-mode:lr-tb;text-anchor:start;fill:#000000;fill-opacity:1;fill-rule:nonzero;stroke:none;font-family:Times New Roman;-inkscape-font-specification:'Times New Roman,'" id="tspan4653" y="0" x="0">0</tspan></text>

</g><path inkscape:connector-curvature="0" style="fill:#ffffff;fill-opacity:1;fill-rule:nonzero;stroke:none" id="path4655" d="m 2851.97,268.605 c 0,25.934 -21.02,46.961 -46.96,46.961 -25.94,0 -46.96,-21.027 -46.96,-46.961 0,-25.937 21.02,-46.964 46.96,-46.964 25.94,0 46.96,21.027 46.96,46.964"/><path inkscape:connector-curvature="0" style="fill:none;stroke:#000000;stroke-width:15.94040012;stroke-linecap:round;stroke-linejoin:miter;stroke-miterlimit:10;stroke-opacity:1;stroke-dasharray:none" id="path4657" d="m 2851.97,268.605 c 0,25.934 -21.02,46.961 -46.96,46.961 -25.94,0 -46.96,-21.027 -46.96,-46.961 0,-25.937 21.02,-46.964 46.96,-46.964 25.94,0 46.96,21.027 46.96,46.964 z"/><path inkscape:connector-curvature="0" style="fill:none;stroke:#000000;stroke-width:15.94040012;stroke-linecap:round;stroke-linejoin:miter;stroke-miterlimit:10;stroke-opacity:1;stroke-dasharray:none" id="path4659" d="M 2592.41,693.805 2780.44,317.738"/><g id="g4661" transform="scale(10,10)"><text sodipodi:linespacing="125%" style="font-size:12px;font-style:normal;font-variant:normal;font-weight:normal;font-stretch:normal;text-align:start;line-height:125%;writing-mode:lr-tb;text-anchor:start;font-family:Times New Roman;-inkscape-font-specification:'Times New Roman,'" id="text4663" transform="matrix(1,0,0,-1,272.758,54.6961)"><tspan style="font-size:12px;font-style:normal;font-variant:normal;font-weight:normal;font-stretch:normal;text-align:start;line-height:125%;writing-mode:lr-tb;text-anchor:start;fill:#000000;fill-opacity:1;fill-rule:nonzero;stroke:none;font-family:Times New Roman;-inkscape-font-specification:'Times New Roman,'" id="tspan4665" y="0" x="0"/><tspan style="font-size:12px;font-style:normal;font-variant:normal;font-weight:normal;font-stretch:normal;text-align:start;line-height:125%;writing-mode:lr-tb;text-anchor:start;fill:#000000;fill-opacity:1;fill-rule:nonzero;stroke:none;font-family:Times New Roman;-inkscape-font-specification:'Times New Roman,'" y="0" x="0" id="tspan3216"/></text>
<g transform="matrix(1,0,0,-1,272.758,54.6961)" style="font-size:12px;font-style:normal;font-variant:normal;font-weight:normal;font-stretch:normal;text-align:start;line-height:125%;writing-mode:lr-tb;text-anchor:start;font-family:Times New Roman;-inkscape-font-specification:'Times New Roman,'" id="text3209"><path d="m 1.40625,-7.1660156 1.9335938,-0.9433594 0.1933593,0 0,6.7089844 c -3.5e-6,0.44531343 0.017575,0.7226569 0.052734,0.83203123 0.039059,0.10937545 0.1171838,0.19335974 0.234375,0.25195312 0.1171836,0.058594 0.3554646,0.0917971 0.7148437,0.0996094 L 4.5351562,0 1.546875,0 l 0,-0.21679688 c 0.3749981,-0.007812 0.6171853,-0.0390622 0.7265625,-0.09375 0.1093726,-0.0585934 0.1855444,-0.13476517 0.2285156,-0.22851562 0.042966,-0.0976556 0.064451,-0.3847647 0.064453,-0.8613281 l 0,-4.2890625 c -2.6e-6,-0.5781188 -0.019534,-0.9492121 -0.058594,-1.1132813 -0.027346,-0.124993 -0.078127,-0.2167898 -0.1523437,-0.2753906 -0.070315,-0.058587 -0.1562522,-0.087884 -0.2578125,-0.087891 -0.1445333,7.1e-6 -0.3457049,0.060554 -0.6035157,0.1816406 L 1.40625,-7.1660156" style="line-height:125%;fill:#000000;fill-opacity:1;fill-rule:nonzero;stroke:none;font-family:Times New Roman;-inkscape-font-specification:'Times New Roman,'" id="path3219"/><path d="m -39.88475,-47.228916 1.933593,-0.94336 0.19336,0 0,6.708985 c -4e-6,0.445313 0.01757,0.722657 0.05273,0.832031 0.03906,0.109376 0.117184,0.19336 0.234375,0.251953 0.117184,0.05859 0.355465,0.0918 0.714844,0.09961 l 0,0.216796 -2.988281,0 0,-0.216796 c 0.374998,-0.0078 0.617185,-0.03906 0.726562,-0.09375 0.109373,-0.05859 0.185545,-0.134766 0.228516,-0.228516 0.04297,-0.09766 0.06445,-0.384765 0.06445,-0.861328 l 0,-4.289063 c -3e-6,-0.578118 -0.01953,-0.949212 -0.05859,-1.113281 -0.02735,-0.124993 -0.07813,-0.21679 -0.152344,-0.275391 -0.07031,-0.05859 -0.156252,-0.08788 -0.257812,-0.08789 -0.144533,7e-6 -0.345705,0.06055 -0.603516,0.18164 l -0.08789,-0.18164" style="line-height:125%;fill:#000000;fill-opacity:1;fill-rule:nonzero;stroke:none;font-family:Times New Roman;-inkscape-font-specification:'Times New Roman,'" id="path3221"/><path d="m -103.66485,-89.748817 1.9336,-0.94336 0.19335,0 0,6.708985 c 0,0.445313 0.0176,0.722656 0.0527,0.832031 0.0391,0.109375 0.11718,0.19336 0.23437,0.251953 0.11719,0.05859 0.35547,0.0918 0.71485,0.09961 l 0,0.216797 -2.98828,0 0,-0.216797 c 0.37499,-0.0078 0.61718,-0.03906 0.72656,-0.09375 0.10937,-0.05859 0.18554,-0.134765 0.22851,-0.228515 0.043,-0.09766 0.0645,-0.384765 0.0645,-0.861328 l 0,-4.289063 c 0,-0.578119 -0.0195,-0.949212 -0.0586,-1.113281 -0.0273,-0.124993 -0.0781,-0.21679 -0.15234,-0.275391 -0.0703,-0.05859 -0.15625,-0.08788 -0.25781,-0.08789 -0.14454,7e-6 -0.34571,0.06055 -0.60352,0.18164 l -0.0879,-0.18164" style="line-height:125%;fill:#000000;fill-opacity:1;fill-rule:nonzero;stroke:none;font-family:Times New Roman;-inkscape-font-specification:'Times New Roman,'" id="path3223"/><path d="m -254.41551,47.330418 c 0,-0.906246 0.13672,-1.685542 0.41015,-2.337891 0.27344,-0.656243 0.63672,-1.144524 1.08985,-1.464844 0.35156,-0.253898 0.71484,-0.380851 1.08984,-0.380859 0.60937,8e-6 1.15625,0.310555 1.64063,0.931641 0.60546,0.769537 0.90819,1.812505 0.9082,3.128906 -1e-5,0.921878 -0.13282,1.70508 -0.39844,2.349609 -0.26563,0.644532 -0.60547,1.113282 -1.01953,1.40625 -0.41016,0.289063 -0.80664,0.433594 -1.18945,0.433594 -0.75782,0 -1.38868,-0.447265 -1.89258,-1.341797 -0.42578,-0.753904 -0.63867,-1.662107 -0.63867,-2.724609 m 1.14844,0.146484 c -1e-5,1.093753 0.13476,1.98633 0.40429,2.677734 0.22266,0.582032 0.55469,0.873047 0.9961,0.873047 0.21093,0 0.42968,-0.09375 0.65625,-0.28125 0.22655,-0.191405 0.39843,-0.509764 0.51562,-0.955078 0.17968,-0.671873 0.26953,-1.619137 0.26953,-2.841797 0,-0.906245 -0.0937,-1.662103 -0.28125,-2.267578 -0.14063,-0.449212 -0.32227,-0.767571 -0.54492,-0.955078 -0.16016,-0.128899 -0.35352,-0.193352 -0.58008,-0.193359 -0.26563,7e-6 -0.50195,0.119148 -0.70898,0.357422 -0.28125,0.324225 -0.47266,0.83399 -0.57422,1.529296 -0.10156,0.695318 -0.15235,1.380864 -0.15234,2.056641" style="line-height:125%;fill:#000000;fill-opacity:1;fill-rule:nonzero;stroke:none;font-family:Times New Roman;-inkscape-font-specification:'Times New Roman,'" id="path3225"/><path d="m -249.4342,47.330418 c 0,-0.906246 0.13671,-1.685542 0.41015,-2.337891 0.27344,-0.656243 0.63672,-1.144524 1.08985,-1.464844 0.35156,-0.253898 0.71484,-0.380851 1.08984,-0.380859 0.60937,8e-6 1.15625,0.310555 1.64062,0.931641 0.60547,0.769537 0.9082,1.812505 0.90821,3.128906 -10e-6,0.921878 -0.13282,1.70508 -0.39844,2.349609 -0.26563,0.644532 -0.60547,1.113282 -1.01953,1.40625 -0.41016,0.289063 -0.80664,0.433594 -1.18945,0.433594 -0.75782,0 -1.38868,-0.447265 -1.89258,-1.341797 -0.42578,-0.753904 -0.63867,-1.662107 -0.63867,-2.724609 m 1.14843,0.146484 c 0,1.093753 0.13477,1.98633 0.4043,2.677734 0.22265,0.582032 0.55469,0.873047 0.99609,0.873047 0.21094,0 0.42969,-0.09375 0.65625,-0.28125 0.22656,-0.191405 0.39844,-0.509764 0.51563,-0.955078 0.17968,-0.671873 0.26953,-1.619137 0.26953,-2.841797 0,-0.906245 -0.0937,-1.662103 -0.28125,-2.267578 -0.14063,-0.449212 -0.32227,-0.767571 -0.54492,-0.955078 -0.16016,-0.128899 -0.35352,-0.193352 -0.58008,-0.193359 -0.26563,7e-6 -0.50196,0.119148 -0.70898,0.357422 -0.28126,0.324225 -0.47266,0.83399 -0.57422,1.529296 -0.10157,0.695318 -0.15235,1.380864 -0.15235,2.056641" style="line-height:125%;fill:#000000;fill-opacity:1;fill-rule:nonzero;stroke:none;font-family:Times New Roman;-inkscape-font-specification:'Times New Roman,'" id="path3227"/><path d="m -244.45291,47.330418 c 0,-0.906246 0.13672,-1.685542 0.41015,-2.337891 0.27344,-0.656243 0.63672,-1.144524 1.08985,-1.464844 0.35156,-0.253898 0.71484,-0.380851 1.08984,-0.380859 0.60937,8e-6 1.15625,0.310555 1.64063,0.931641 0.60546,0.769537 0.90819,1.812505 0.9082,3.128906 -10e-6,0.921878 -0.13282,1.70508 -0.39844,2.349609 -0.26563,0.644532 -0.60547,1.113282 -1.01953,1.40625 -0.41016,0.289063 -0.80664,0.433594 -1.18945,0.433594 -0.75782,0 -1.38867,-0.447265 -1.89258,-1.341797 -0.42578,-0.753904 -0.63867,-1.662107 -0.63867,-2.724609 m 1.14844,0.146484 c -1e-5,1.093753 0.13476,1.98633 0.40429,2.677734 0.22266,0.582032 0.55469,0.873047 0.9961,0.873047 0.21093,0 0.42968,-0.09375 0.65625,-0.28125 0.22656,-0.191405 0.39843,-0.509764 0.51562,-0.955078 0.17968,-0.671873 0.26953,-1.619137 0.26953,-2.841797 0,-0.906245 -0.0937,-1.662103 -0.28125,-2.267578 -0.14063,-0.449212 -0.32227,-0.767571 -0.54492,-0.955078 -0.16016,-0.128899 -0.35352,-0.193352 -0.58008,-0.193359 -0.26562,7e-6 -0.50195,0.119148 -0.70898,0.357422 -0.28125,0.324225 -0.47266,0.83399 -0.57422,1.529296 -0.10156,0.695318 -0.15235,1.380864 -0.15234,2.056641" style="line-height:125%;fill:#000000;fill-opacity:1;fill-rule:nonzero;stroke:none;font-family:Times New Roman;-inkscape-font-specification:'Times New Roman,'" id="path3229"/><path d="m -211.89563,47.330418 c 0,-0.906246 0.13672,-1.685542 0.41016,-2.337891 0.27343,-0.656243 0.63671,-1.144524 1.08984,-1.464844 0.35156,-0.253898 0.71484,-0.380851 1.08984,-0.380859 0.60938,8e-6 1.15625,0.310555 1.64063,0.931641 0.60546,0.769537 0.9082,1.812505 0.9082,3.128906 0,0.921878 -0.13282,1.70508 -0.39844,2.349609 -0.26563,0.644532 -0.60547,1.113282 -1.01953,1.40625 -0.41016,0.289063 -0.80664,0.433594 -1.18945,0.433594 -0.75781,0 -1.38867,-0.447265 -1.89258,-1.341797 -0.42578,-0.753904 -0.63867,-1.662107 -0.63867,-2.724609 m 1.14844,0.146484 c 0,1.093753 0.13476,1.98633 0.40429,2.677734 0.22266,0.582032 0.55469,0.873047 0.9961,0.873047 0.21093,0 0.42968,-0.09375 0.65625,-0.28125 0.22656,-0.191405 0.39843,-0.509764 0.51562,-0.955078 0.17969,-0.671873 0.26953,-1.619137 0.26953,-2.841797 0,-0.906245 -0.0937,-1.662103 -0.28125,-2.267578 -0.14062,-0.449212 -0.32226,-0.767571 -0.54492,-0.955078 -0.16016,-0.128899 -0.35352,-0.193352 -0.58008,-0.193359 -0.26562,7e-6 -0.50195,0.119148 -0.70898,0.357422 -0.28125,0.324225 -0.47266,0.83399 -0.57422,1.529296 -0.10156,0.695318 -0.15234,1.380864 -0.15234,2.056641" style="line-height:125%;fill:#000000;fill-opacity:1;fill-rule:nonzero;stroke:none;font-family:Times New Roman;-inkscape-font-specification:'Times New Roman,'" id="path3231"/><path d="m -206.91432,47.330418 c 0,-0.906246 0.13672,-1.685542 0.41015,-2.337891 0.27344,-0.656243 0.63672,-1.144524 1.08985,-1.464844 0.35156,-0.253898 0.71484,-0.380851 1.08984,-0.380859 0.60937,8e-6 1.15625,0.310555 1.64063,0.931641 0.60546,0.769537 0.90819,1.812505 0.9082,3.128906 -10e-6,0.921878 -0.13282,1.70508 -0.39844,2.349609 -0.26563,0.644532 -0.60547,1.113282 -1.01953,1.40625 -0.41016,0.289063 -0.80664,0.433594 -1.18945,0.433594 -0.75782,0 -1.38868,-0.447265 -1.89258,-1.341797 -0.42578,-0.753904 -0.63867,-1.662107 -0.63867,-2.724609 m 1.14844,0.146484 c -1e-5,1.093753 0.13476,1.98633 0.40429,2.677734 0.22266,0.582032 0.55469,0.873047 0.9961,0.873047 0.21093,0 0.42968,-0.09375 0.65625,-0.28125 0.22655,-0.191405 0.39843,-0.509764 0.51562,-0.955078 0.17968,-0.671873 0.26953,-1.619137 0.26953,-2.841797 0,-0.906245 -0.0937,-1.662103 -0.28125,-2.267578 -0.14063,-0.449212 -0.32227,-0.767571 -0.54492,-0.955078 -0.16016,-0.128899 -0.35352,-0.193352 -0.58008,-0.193359 -0.26563,7e-6 -0.50195,0.119148 -0.70898,0.357422 -0.28125,0.324225 -0.47266,0.83399 -0.57422,1.529296 -0.10156,0.695318 -0.15235,1.380864 -0.15234,2.056641" style="line-height:125%;fill:#000000;fill-opacity:1;fill-rule:nonzero;stroke:none;font-family:Times New Roman;-inkscape-font-specification:'Times New Roman,'" id="path3233"/><path d="m -200.96037,44.090183 1.93359,-0.943359 0.19336,0 0,6.708984 c 0,0.445314 0.0176,0.722657 0.0527,0.832032 0.0391,0.109375 0.11719,0.193359 0.23438,0.251953 0.11718,0.05859 0.35546,0.0918 0.71484,0.09961 l 0,0.216797 -2.98828,0 0,-0.216797 c 0.375,-0.0078 0.61719,-0.03906 0.72656,-0.09375 0.10938,-0.05859 0.18555,-0.134765 0.22852,-0.228516 0.043,-0.09766 0.0644,-0.384764 0.0644,-0.861328 l 0,-4.289062 c 0,-0.578119 -0.0195,-0.949212 -0.0586,-1.113281 -0.0273,-0.124994 -0.0781,-0.21679 -0.15234,-0.275391 -0.0703,-0.05859 -0.15626,-0.08788 -0.25782,-0.08789 -0.14453,7e-6 -0.3457,0.06055 -0.60351,0.181641 l -0.0879,-0.181641" style="line-height:125%;fill:#000000;fill-opacity:1;fill-rule:nonzero;stroke:none;font-family:Times New Roman;-inkscape-font-specification:'Times New Roman,'" id="path3235"/><path d="m -169.37645,47.330418 c 0,-0.906246 0.13672,-1.685542 0.41016,-2.337891 0.27343,-0.656243 0.63671,-1.144524 1.08984,-1.464844 0.35156,-0.253898 0.71484,-0.380851 1.08984,-0.380859 0.60938,8e-6 1.15625,0.310555 1.64063,0.931641 0.60546,0.769537 0.9082,1.812505 0.9082,3.128906 0,0.921878 -0.13282,1.70508 -0.39844,2.349609 -0.26563,0.644532 -0.60547,1.113282 -1.01953,1.40625 -0.41016,0.289063 -0.80664,0.433594 -1.18945,0.433594 -0.75781,0 -1.38867,-0.447265 -1.89258,-1.341797 -0.42578,-0.753904 -0.63867,-1.662107 -0.63867,-2.724609 m 1.14844,0.146484 c 0,1.093753 0.13476,1.98633 0.40429,2.677734 0.22266,0.582032 0.55469,0.873047 0.9961,0.873047 0.21093,0 0.42968,-0.09375 0.65625,-0.28125 0.22656,-0.191405 0.39843,-0.509764 0.51562,-0.955078 0.17969,-0.671873 0.26953,-1.619137 0.26953,-2.841797 0,-0.906245 -0.0937,-1.662103 -0.28125,-2.267578 -0.14062,-0.449212 -0.32226,-0.767571 -0.54492,-0.955078 -0.16016,-0.128899 -0.35352,-0.193352 -0.58008,-0.193359 -0.26562,7e-6 -0.50195,0.119148 -0.70898,0.357422 -0.28125,0.324225 -0.47266,0.83399 -0.57422,1.529296 -0.10156,0.695318 -0.15234,1.380864 -0.15234,2.056641" style="line-height:125%;fill:#000000;fill-opacity:1;fill-rule:nonzero;stroke:none;font-family:Times New Roman;-inkscape-font-specification:'Times New Roman,'" id="path3237"/><path d="m -163.42249,44.090183 1.9336,-0.943359 0.19336,0 0,6.708984 c -10e-6,0.445314 0.0176,0.722657 0.0527,0.832032 0.0391,0.109375 0.11719,0.193359 0.23438,0.251953 0.11718,0.05859 0.35546,0.0918 0.71484,0.09961 l 0,0.216797 -2.98828,0 0,-0.216797 c 0.375,-0.0078 0.61718,-0.03906 0.72656,-0.09375 0.10937,-0.05859 0.18555,-0.134765 0.22852,-0.228516 0.043,-0.09766 0.0645,-0.384764 0.0645,-0.861328 l 0,-4.289062 c 0,-0.578119 -0.0195,-0.949212 -0.0586,-1.113281 -0.0274,-0.124994 -0.0781,-0.21679 -0.15235,-0.275391 -0.0703,-0.05859 -0.15625,-0.08788 -0.25781,-0.08789 -0.14453,7e-6 -0.3457,0.06055 -0.60351,0.181641 l -0.0879,-0.181641" style="line-height:125%;fill:#000000;fill-opacity:1;fill-rule:nonzero;stroke:none;font-family:Times New Roman;-inkscape-font-specification:'Times New Roman,'" id="path3239"/><path d="m -159.41385,47.330418 c 0,-0.906246 0.13672,-1.685542 0.41016,-2.337891 0.27343,-0.656243 0.63671,-1.144524 1.08984,-1.464844 0.35156,-0.253898 0.71484,-0.380851 1.08984,-0.380859 0.60938,8e-6 1.15625,0.310555 1.64063,0.931641 0.60546,0.769537 0.9082,1.812505 0.9082,3.128906 0,0.921878 -0.13281,1.70508 -0.39843,2.349609 -0.26563,0.644532 -0.60548,1.113282 -1.01954,1.40625 -0.41016,0.289063 -0.80664,0.433594 -1.18945,0.433594 -0.75781,0 -1.38867,-0.447265 -1.89258,-1.341797 -0.42578,-0.753904 -0.63867,-1.662107 -0.63867,-2.724609 m 1.14844,0.146484 c 0,1.093753 0.13476,1.98633 0.4043,2.677734 0.22265,0.582032 0.55468,0.873047 0.99609,0.873047 0.21093,0 0.42968,-0.09375 0.65625,-0.28125 0.22656,-0.191405 0.39843,-0.509764 0.51562,-0.955078 0.17969,-0.671873 0.26953,-1.619137 0.26954,-2.841797 -1e-5,-0.906245 -0.0938,-1.662103 -0.28125,-2.267578 -0.14063,-0.449212 -0.32227,-0.767571 -0.54493,-0.955078 -0.16016,-0.128899 -0.35352,-0.193352 -0.58007,-0.193359 -0.26563,7e-6 -0.50196,0.119148 -0.70899,0.357422 -0.28125,0.324225 -0.47266,0.83399 -0.57422,1.529296 -0.10156,0.695318 -0.15234,1.380864 -0.15234,2.056641" style="line-height:125%;fill:#000000;fill-opacity:1;fill-rule:nonzero;stroke:none;font-family:Times New Roman;-inkscape-font-specification:'Times New Roman,'" id="path3241"/><path d="m -125.88391,44.090183 1.93359,-0.943359 0.19336,0 0,6.708984 c 0,0.445314 0.0176,0.722657 0.0527,0.832032 0.0391,0.109375 0.11718,0.193359 0.23437,0.251953 0.11718,0.05859 0.35547,0.0918 0.71485,0.09961 l 0,0.216797 -2.98829,0 0,-0.216797 c 0.375,-0.0078 0.61719,-0.03906 0.72657,-0.09375 0.10937,-0.05859 0.18554,-0.134765 0.22851,-0.228516 0.043,-0.09766 0.0645,-0.384764 0.0645,-0.861328 l 0,-4.289062 c -1e-5,-0.578119 -0.0195,-0.949212 -0.0586,-1.113281 -0.0273,-0.124994 -0.0781,-0.21679 -0.15234,-0.275391 -0.0703,-0.05859 -0.15625,-0.08788 -0.25781,-0.08789 -0.14454,7e-6 -0.34571,0.06055 -0.60352,0.181641 l -0.0879,-0.181641" style="line-height:125%;fill:#000000;fill-opacity:1;fill-rule:nonzero;stroke:none;font-family:Times New Roman;-inkscape-font-specification:'Times New Roman,'" id="path3243"/><path d="m -121.87527,47.330418 c 0,-0.906246 0.13672,-1.685542 0.41016,-2.337891 0.27344,-0.656243 0.63672,-1.144524 1.08984,-1.464844 0.35156,-0.253898 0.71484,-0.380851 1.08985,-0.380859 0.60937,8e-6 1.15624,0.310555 1.64062,0.931641 0.60547,0.769537 0.9082,1.812505 0.9082,3.128906 0,0.921878 -0.13281,1.70508 -0.39843,2.349609 -0.26563,0.644532 -0.60548,1.113282 -1.01953,1.40625 -0.41016,0.289063 -0.80665,0.433594 -1.18946,0.433594 -0.75781,0 -1.38867,-0.447265 -1.89258,-1.341797 -0.42578,-0.753904 -0.63867,-1.662107 -0.63867,-2.724609 m 1.14844,0.146484 c 0,1.093753 0.13476,1.98633 0.4043,2.677734 0.22265,0.582032 0.55468,0.873047 0.99609,0.873047 0.21094,0 0.42969,-0.09375 0.65625,-0.28125 0.22656,-0.191405 0.39843,-0.509764 0.51563,-0.955078 0.17968,-0.671873 0.26952,-1.619137 0.26953,-2.841797 -1e-5,-0.906245 -0.0938,-1.662103 -0.28125,-2.267578 -0.14063,-0.449212 -0.32227,-0.767571 -0.54492,-0.955078 -0.16016,-0.128899 -0.35352,-0.193352 -0.58008,-0.193359 -0.26563,7e-6 -0.50196,0.119148 -0.70899,0.357422 -0.28125,0.324225 -0.47266,0.83399 -0.57422,1.529296 -0.10156,0.695318 -0.15234,1.380864 -0.15234,2.056641" style="line-height:125%;fill:#000000;fill-opacity:1;fill-rule:nonzero;stroke:none;font-family:Times New Roman;-inkscape-font-specification:'Times New Roman,'" id="path3245"/><path d="m -116.89397,47.330418 c 0,-0.906246 0.13672,-1.685542 0.41016,-2.337891 0.27344,-0.656243 0.63672,-1.144524 1.08984,-1.464844 0.35156,-0.253898 0.71484,-0.380851 1.08985,-0.380859 0.60937,8e-6 1.15624,0.310555 1.64062,0.931641 0.60547,0.769537 0.9082,1.812505 0.90821,3.128906 -1e-5,0.921878 -0.13282,1.70508 -0.39844,2.349609 -0.26563,0.644532 -0.60548,1.113282 -1.01953,1.40625 -0.41016,0.289063 -0.80665,0.433594 -1.18946,0.433594 -0.75781,0 -1.38867,-0.447265 -1.89257,-1.341797 -0.42579,-0.753904 -0.63868,-1.662107 -0.63868,-2.724609 m 1.14844,0.146484 c 0,1.093753 0.13476,1.98633 0.4043,2.677734 0.22265,0.582032 0.55468,0.873047 0.99609,0.873047 0.21094,0 0.42969,-0.09375 0.65625,-0.28125 0.22656,-0.191405 0.39843,-0.509764 0.51563,-0.955078 0.17968,-0.671873 0.26952,-1.619137 0.26953,-2.841797 -1e-5,-0.906245 -0.0938,-1.662103 -0.28125,-2.267578 -0.14063,-0.449212 -0.32227,-0.767571 -0.54492,-0.955078 -0.16016,-0.128899 -0.35352,-0.193352 -0.58008,-0.193359 -0.26563,7e-6 -0.50196,0.119148 -0.70899,0.357422 -0.28125,0.324225 -0.47265,0.83399 -0.57422,1.529296 -0.10156,0.695318 -0.15234,1.380864 -0.15234,2.056641" style="line-height:125%;fill:#000000;fill-opacity:1;fill-rule:nonzero;stroke:none;font-family:Times New Roman;-inkscape-font-specification:'Times New Roman,'" id="path3247"/><path d="m -83.364029,44.090183 1.933594,-0.943359 0.193359,0 0,6.708984 c -3e-6,0.445314 0.01758,0.722657 0.05273,0.832032 0.03906,0.109375 0.117183,0.193359 0.234375,0.251953 0.117183,0.05859 0.355464,0.0918 0.714843,0.09961 l 0,0.216797 -2.988281,0 0,-0.216797 c 0.374998,-0.0078 0.617185,-0.03906 0.726563,-0.09375 0.109372,-0.05859 0.185544,-0.134765 0.228515,-0.228516 0.04297,-0.09766 0.06445,-0.384764 0.06445,-0.861328 l 0,-4.289062 c -2e-6,-0.578119 -0.01953,-0.949212 -0.05859,-1.113281 -0.02735,-0.124994 -0.07813,-0.21679 -0.152344,-0.275391 -0.07031,-0.05859 -0.156252,-0.08788 -0.257813,-0.08789 -0.144533,7e-6 -0.345705,0.06055 -0.603515,0.181641 l -0.08789,-0.181641" style="line-height:125%;fill:#000000;fill-opacity:1;fill-rule:nonzero;stroke:none;font-family:Times New Roman;-inkscape-font-specification:'Times New Roman,'" id="path3249"/><path d="m -79.355392,47.330418 c -1e-6,-0.906246 0.136718,-1.685542 0.410156,-2.337891 0.273436,-0.656243 0.636717,-1.144524 1.089844,-1.464844 0.35156,-0.253898 0.714841,-0.380851 1.089843,-0.380859 0.609372,8e-6 1.156246,0.310555 1.640625,0.931641 0.605464,0.769537 0.908198,1.812505 0.908203,3.128906 -5e-6,0.921878 -0.132818,1.70508 -0.398437,2.349609 -0.26563,0.644532 -0.605473,1.113282 -1.019531,1.40625 -0.41016,0.289063 -0.806644,0.433594 -1.189453,0.433594 -0.757815,0 -1.388674,-0.447265 -1.892579,-1.341797 -0.425781,-0.753904 -0.638672,-1.662107 -0.638671,-2.724609 m 1.148437,0.146484 c -2e-6,1.093753 0.134764,1.98633 0.404297,2.677734 0.222654,0.582032 0.554685,0.873047 0.996094,0.873047 0.210934,0 0.429684,-0.09375 0.65625,-0.28125 0.226558,-0.191405 0.398433,-0.509764 0.515625,-0.955078 0.179683,-0.671873 0.269526,-1.619137 0.269531,-2.841797 -5e-6,-0.906245 -0.09375,-1.662103 -0.28125,-2.267578 -0.140629,-0.449212 -0.32227,-0.767571 -0.544922,-0.955078 -0.16016,-0.128899 -0.353519,-0.193352 -0.580078,-0.193359 -0.265628,7e-6 -0.501956,0.119148 -0.708984,0.357422 -0.281252,0.324225 -0.472659,0.83399 -0.574219,1.529296 -0.101564,0.695318 -0.152346,1.380864 -0.152344,2.056641" style="line-height:125%;fill:#000000;fill-opacity:1;fill-rule:nonzero;stroke:none;font-family:Times New Roman;-inkscape-font-specification:'Times New Roman,'" id="path3251"/><path d="m -73.401436,44.090183 1.933594,-0.943359 0.193359,0 0,6.708984 c -3e-6,0.445314 0.01758,0.722657 0.05273,0.832032 0.03906,0.109375 0.117183,0.193359 0.234375,0.251953 0.117183,0.05859 0.355464,0.0918 0.714843,0.09961 l 0,0.216797 -2.988281,0 0,-0.216797 c 0.374998,-0.0078 0.617185,-0.03906 0.726563,-0.09375 0.109372,-0.05859 0.185544,-0.134765 0.228515,-0.228516 0.04297,-0.09766 0.06445,-0.384764 0.06445,-0.861328 l 0,-4.289062 c -2e-6,-0.578119 -0.01953,-0.949212 -0.05859,-1.113281 -0.02735,-0.124994 -0.07813,-0.21679 -0.152344,-0.275391 -0.07031,-0.05859 -0.156252,-0.08788 -0.257813,-0.08789 -0.144533,7e-6 -0.345704,0.06055 -0.603515,0.181641 l -0.08789,-0.181641" style="line-height:125%;fill:#000000;fill-opacity:1;fill-rule:nonzero;stroke:none;font-family:Times New Roman;-inkscape-font-specification:'Times New Roman,'" id="path3253"/><path d="m -40.844852,44.090183 1.933593,-0.943359 0.19336,0 0,6.708984 c -4e-6,0.445314 0.01757,0.722657 0.05273,0.832032 0.03906,0.109375 0.117184,0.193359 0.234375,0.251953 0.117184,0.05859 0.355465,0.0918 0.714844,0.09961 l 0,0.216797 -2.988281,0 0,-0.216797 c 0.374998,-0.0078 0.617185,-0.03906 0.726562,-0.09375 0.109373,-0.05859 0.185544,-0.134765 0.228516,-0.228516 0.04297,-0.09766 0.06445,-0.384764 0.06445,-0.861328 l 0,-4.289062 c -3e-6,-0.578119 -0.01953,-0.949212 -0.05859,-1.113281 -0.02735,-0.124994 -0.07813,-0.21679 -0.152344,-0.275391 -0.07031,-0.05859 -0.156252,-0.08788 -0.257812,-0.08789 -0.144533,7e-6 -0.345705,0.06055 -0.603516,0.181641 l -0.08789,-0.181641" style="line-height:125%;fill:#000000;fill-opacity:1;fill-rule:nonzero;stroke:none;font-family:Times New Roman;-inkscape-font-specification:'Times New Roman,'" id="path3255"/><path d="m -35.863552,44.090183 1.933594,-0.943359 0.193359,0 0,6.708984 c -4e-6,0.445314 0.01758,0.722657 0.05273,0.832032 0.03906,0.109375 0.117184,0.193359 0.234375,0.251953 0.117184,0.05859 0.355465,0.0918 0.714844,0.09961 l 0,0.216797 -2.988281,0 0,-0.216797 c 0.374998,-0.0078 0.617185,-0.03906 0.726562,-0.09375 0.109373,-0.05859 0.185545,-0.134765 0.228516,-0.228516 0.04297,-0.09766 0.06445,-0.384764 0.06445,-0.861328 l 0,-4.289062 c -2e-6,-0.578119 -0.01953,-0.949212 -0.05859,-1.113281 -0.02735,-0.124994 -0.07813,-0.21679 -0.152343,-0.275391 -0.07032,-0.05859 -0.156253,-0.08788 -0.257813,-0.08789 -0.144533,7e-6 -0.345705,0.06055 -0.603515,0.181641 l -0.08789,-0.181641" style="line-height:125%;fill:#000000;fill-opacity:1;fill-rule:nonzero;stroke:none;font-family:Times New Roman;-inkscape-font-specification:'Times New Roman,'" id="path3257"/><path d="m -31.854908,47.330418 c 0,-0.906246 0.136718,-1.685542 0.410156,-2.337891 0.273437,-0.656243 0.636718,-1.144524 1.089844,-1.464844 0.35156,-0.253898 0.714841,-0.380851 1.089844,-0.380859 0.609371,8e-6 1.156246,0.310555 1.640625,0.931641 0.605463,0.769537 0.908197,1.812505 0.908203,3.128906 -6e-6,0.921878 -0.132818,1.70508 -0.398438,2.349609 -0.26563,0.644532 -0.605473,1.113282 -1.019531,1.40625 -0.41016,0.289063 -0.806644,0.433594 -1.189453,0.433594 -0.757815,0 -1.388673,-0.447265 -1.892578,-1.341797 -0.425782,-0.753904 -0.638672,-1.662107 -0.638672,-2.724609 m 1.148438,0.146484 c -2e-6,1.093753 0.134763,1.98633 0.404296,2.677734 0.222654,0.582032 0.554685,0.873047 0.996094,0.873047 0.210934,0 0.429684,-0.09375 0.65625,-0.28125 0.226559,-0.191405 0.398434,-0.509764 0.515625,-0.955078 0.179683,-0.671873 0.269527,-1.619137 0.269531,-2.841797 -4e-6,-0.906245 -0.09375,-1.662103 -0.28125,-2.267578 -0.140629,-0.449212 -0.322269,-0.767571 -0.544921,-0.955078 -0.16016,-0.128899 -0.353519,-0.193352 -0.580079,-0.193359 -0.265627,7e-6 -0.501955,0.119148 -0.708984,0.357422 -0.281252,0.324225 -0.472658,0.83399 -0.574219,1.529296 -0.101564,0.695318 -0.152345,1.380864 -0.152343,2.056641" style="line-height:125%;fill:#000000;fill-opacity:1;fill-rule:nonzero;stroke:none;font-family:Times New Roman;-inkscape-font-specification:'Times New Roman,'" id="path3259"/><path d="m 1.6750273,44.090183 1.9335937,-0.943359 0.1933594,0 0,6.708984 c -3.6e-6,0.445314 0.017575,0.722657 0.052734,0.832032 0.039059,0.109375 0.1171837,0.193359 0.234375,0.251953 0.1171835,0.05859 0.3554645,0.0918 0.7148437,0.09961 l 0,0.216797 -2.9882812,0 0,-0.216797 c 0.374998,-0.0078 0.6171853,-0.03906 0.7265625,-0.09375 0.1093726,-0.05859 0.1855444,-0.134765 0.2285156,-0.228516 0.042966,-0.09766 0.06445,-0.384764 0.064453,-0.861328 l 0,-4.289062 c -2.6e-6,-0.578119 -0.019534,-0.949212 -0.058594,-1.113281 -0.027346,-0.124994 -0.078127,-0.21679 -0.1523438,-0.275391 -0.070315,-0.05859 -0.1562522,-0.08788 -0.2578125,-0.08789 -0.1445332,7e-6 -0.3457049,0.06055 -0.6035156,0.181641 l -0.087891,-0.181641" style="line-height:125%;fill:#000000;fill-opacity:1;fill-rule:nonzero;stroke:none;font-family:Times New Roman;-inkscape-font-specification:'Times New Roman,'" id="path3261"/><path d="m 6.6563272,44.090183 1.9335938,-0.943359 0.1933594,0 0,6.708984 c -3.6e-6,0.445314 0.017574,0.722657 0.052734,0.832032 0.039059,0.109375 0.1171838,0.193359 0.234375,0.251953 0.1171836,0.05859 0.3554646,0.0918 0.7148438,0.09961 l 0,0.216797 -2.9882813,0 0,-0.216797 c 0.3749981,-0.0078 0.6171854,-0.03906 0.7265625,-0.09375 0.1093727,-0.05859 0.1855445,-0.134765 0.2285157,-0.228516 0.042966,-0.09766 0.064451,-0.384764 0.064453,-0.861328 l 0,-4.289062 c -2.6e-6,-0.578119 -0.019534,-0.949212 -0.058594,-1.113281 -0.027346,-0.124994 -0.078127,-0.21679 -0.1523437,-0.275391 -0.070315,-0.05859 -0.1562522,-0.08788 -0.2578125,-0.08789 -0.1445332,7e-6 -0.3457049,0.06055 -0.6035156,0.181641 l -0.087891,-0.181641" style="line-height:125%;fill:#000000;fill-opacity:1;fill-rule:nonzero;stroke:none;font-family:Times New Roman;-inkscape-font-specification:'Times New Roman,'" id="path3263"/><path d="m 11.637628,44.090183 1.933593,-0.943359 0.19336,0 0,6.708984 c -4e-6,0.445314 0.01757,0.722657 0.05273,0.832032 0.03906,0.109375 0.117184,0.193359 0.234375,0.251953 0.117184,0.05859 0.355465,0.0918 0.714844,0.09961 l 0,0.216797 -2.988281,0 0,-0.216797 c 0.374998,-0.0078 0.617185,-0.03906 0.726562,-0.09375 0.109373,-0.05859 0.185545,-0.134765 0.228516,-0.228516 0.04297,-0.09766 0.06445,-0.384764 0.06445,-0.861328 l 0,-4.289062 c -3e-6,-0.578119 -0.01953,-0.949212 -0.05859,-1.113281 -0.02735,-0.124994 -0.07813,-0.21679 -0.152344,-0.275391 -0.07031,-0.05859 -0.156252,-0.08788 -0.257812,-0.08789 -0.144533,7e-6 -0.345705,0.06055 -0.603516,0.181641 l -0.08789,-0.181641" style="line-height:125%;fill:#000000;fill-opacity:1;fill-rule:nonzero;stroke:none;font-family:Times New Roman;-inkscape-font-specification:'Times New Roman,'" id="path3265"/></g>
</g></g></svg>