<?xml version="1.0" encoding="UTF-8" standalone="no"?>
<!-- Created with Inkscape (http://www.inkscape.org/) -->

<svg
   xmlns:dc="http://purl.org/dc/elements/1.1/"
   xmlns:cc="http://creativecommons.org/ns#"
   xmlns:rdf="http://www.w3.org/1999/02/22-rdf-syntax-ns#"
   xmlns:svg="http://www.w3.org/2000/svg"
   xmlns="http://www.w3.org/2000/svg"
   version="1.1"
   width="744.09448"
   height="1052.3622"
   id="svg2">
  <defs
     id="defs4" />
  <metadata
     id="metadata7">
    <rdf:RDF>
      <cc:Work
         rdf:about="">
        <dc:format>image/svg+xml</dc:format>
        <dc:type
           rdf:resource="http://purl.org/dc/dcmitype/StillImage" />
        <dc:title></dc:title>
      </cc:Work>
    </rdf:RDF>
  </metadata>
  <g
     id="layer1">
    <g
       transform="matrix(1.25,0,0,-1.25,158.21145,108.52074)"
       id="g3383">
      <g
         id="g3385">
        <path
           d="m -51.17561,33.90625 0,-143.52742 c 0,-2.20094 1.78416,-3.98511 3.98511,-3.98511 l 450.38555,0 c 2.20095,0 3.98511,1.78417 3.98511,3.98511 l 0,143.52742 c 0,2.20095 -1.78416,3.98511 -3.98511,3.98511 l -450.38555,0 c -2.20095,0 -3.98511,-1.78416 -3.98511,-3.98511 z"
           id="path3387"
           style="fill:#cbd7eb;fill-opacity:1;fill-rule:nonzero;stroke:#000000;stroke-width:0.3985;stroke-linecap:butt;stroke-linejoin:miter;stroke-miterlimit:10;stroke-opacity:1;stroke-dasharray:none" />
      </g>
      <g
         id="g3389">
        <path
           d="m -51.77338,-153.52306 0,-96.63671 c 0,-2.20095 1.78417,-3.98511 3.98511,-3.98511 l 451.58109,0 c 2.20094,0 3.9851,1.78416 3.9851,3.98511 l 0,96.63671 c 0,2.20095 -1.78416,3.98511 -3.9851,3.98511 l -451.58109,0 c -2.20094,0 -3.98511,-1.78416 -3.98511,-3.98511 z"
           id="path3391"
           style="fill:#a4bce0;fill-opacity:1;fill-rule:nonzero;stroke:#000000;stroke-width:0.3985;stroke-linecap:butt;stroke-linejoin:miter;stroke-miterlimit:10;stroke-opacity:1;stroke-dasharray:none" />
      </g>
    </g>
    <path
       d="m 206.98775,91.293915 -97.5526,0 c -2.75117,0 -4.98139,2.2302 -4.98139,4.981375 l 0,24.4909 c 0,2.75117 2.23022,4.98138 4.98139,4.98138 l 97.5526,0 c 2.75118,0 4.98139,-2.23021 4.98139,-4.98138 l 0,-24.4909 c 0,-2.751175 -2.23022,-4.981375 -4.98139,-4.981375 z"
       id="path3399"
       style="fill:#7c9ccd;fill-opacity:1;fill-rule:nonzero;stroke:#ffffff;stroke-width:0.49812499;stroke-linecap:butt;stroke-linejoin:miter;stroke-miterlimit:10;stroke-opacity:1;stroke-dasharray:none" />
    <g
       transform="matrix(1.25,0,0,-1.25,-93.1423,894.90574)"
       id="g3407">
      <text
         transform="matrix(1,0,0,-1,190.788,627.613)"
         id="text3409">
        <tspan
           x="0 6.6928749 11.78476 16.876644"
           y="0"
           id="tspan3411"
           style="font-size:9.96259975px;font-variant:normal;font-weight:normal;writing-mode:lr-tb;fill:#ffffff;fill-opacity:1;fill-rule:nonzero;stroke:none;font-family:CMSSBX10;-inkscape-font-specification:CMSSBX10">Peer</tspan>
      </text>
      <g
         transform="translate(161.398,627.613)"
         id="g3413" />
    </g>
    <path
       d="m 318.23916,91.293915 -97.5526,0 c -2.75119,0 -4.98139,2.2302 -4.98139,4.981375 l 0,24.4909 c 0,2.75117 2.2302,4.98138 4.98139,4.98138 l 97.5526,0 c 2.75118,0 4.98139,-2.23021 4.98139,-4.98138 l 0,-24.4909 c 0,-2.751175 -2.23021,-4.981375 -4.98139,-4.981375 z"
       id="path3421"
       style="fill:#7c9ccd;fill-opacity:1;fill-rule:nonzero;stroke:#ffffff;stroke-width:0.49812499;stroke-linecap:butt;stroke-linejoin:miter;stroke-miterlimit:10;stroke-opacity:1;stroke-dasharray:none" />
    <g
       transform="matrix(1.25,0,0,-1.25,-93.1423,894.90574)"
       id="g3429">
      <text
         transform="matrix(1,0,0,-1,262.326,627.613)"
         id="text3431">
        <tspan
           x="0 7.9152856 15.830571 23.136147 29.224291 34.316177 38.024254 43.005554 45.551994 50.42271"
           y="0"
           id="tspan3433"
           style="font-size:9.96259975px;font-variant:normal;font-weight:normal;writing-mode:lr-tb;fill:#ffffff;fill-opacity:1;fill-rule:nonzero;stroke:none;font-family:CMSSBX10;-inkscape-font-specification:CMSSBX10">DHTService</tspan>
      </text>
      <g
         transform="translate(250.398,627.613)"
         id="g3435" />
    </g>
    <path
       d="m 429.4906,91.293915 -97.55262,0 c -2.75119,0 -4.98139,2.2302 -4.98139,4.981375 l 0,24.4909 c 0,2.75117 2.2302,4.98138 4.98139,4.98138 l 97.55262,0 c 2.75118,0 4.98138,-2.23021 4.98138,-4.98138 l 0,-24.4909 c 0,-2.751175 -2.2302,-4.981375 -4.98138,-4.981375 z"
       id="path3443"
       style="fill:#7c9ccd;fill-opacity:1;fill-rule:nonzero;stroke:#ffffff;stroke-width:0.49812499;stroke-linecap:butt;stroke-linejoin:miter;stroke-miterlimit:10;stroke-opacity:1;stroke-dasharray:none" />
    <g
       transform="matrix(1.25,0,0,-1.25,-93.1423,894.90574)"
       id="g3451">
      <text
         transform="matrix(1,0,0,-1,354.757,627.613)"
         id="text3453">
        <tspan
           x="0 6.0881448 8.6345854 11.181026 16.272911 22.361055 27.45294 31.16102 36.142319 38.688763 43.559475"
           y="0"
           id="tspan3455"
           style="font-size:9.96259975px;font-variant:normal;font-weight:normal;writing-mode:lr-tb;fill:#ffffff;fill-opacity:1;fill-rule:nonzero;stroke:none;font-family:CMSSBX10;-inkscape-font-specification:CMSSBX10">FileService</tspan>
      </text>
      <g
         transform="translate(339.398,627.613)"
         id="g3457" />
    </g>
    <path
       d="m 540.742,91.293915 -97.5526,0 c -2.75117,0 -4.98139,2.2302 -4.98139,4.981375 l 0,24.4909 c 0,2.75117 2.23022,4.98138 4.98139,4.98138 l 97.5526,0 c 2.75119,0 4.98139,-2.23021 4.98139,-4.98138 l 0,-24.4909 c 0,-2.751175 -2.2302,-4.981375 -4.98139,-4.981375 z"
       id="path3465"
       style="fill:#7c9ccd;fill-opacity:1;fill-rule:nonzero;stroke:#ffffff;stroke-width:0.49812499;stroke-linecap:butt;stroke-linejoin:miter;stroke-miterlimit:10;stroke-opacity:1;stroke-dasharray:none" />
    <g
       transform="matrix(1.25,0,0,-1.25,-93.1423,894.90574)"
       id="g3473">
      <text
         transform="matrix(1,0,0,-1,438.914,627.613)"
         id="text3475">
        <tspan
           x="0 7.0017152 9.5481558 14.778521 17.324961 25.959547 32.047691 37.139576 40.847656 45.828957 48.375397 53.246113"
           y="0"
           id="tspan3477"
           style="font-size:9.96259975px;font-variant:normal;font-weight:normal;writing-mode:lr-tb;fill:#ffffff;fill-opacity:1;fill-rule:nonzero;stroke:none;font-family:CMSSBX10;-inkscape-font-specification:CMSSBX10">ClaimService</tspan>
      </text>
      <g
         transform="translate(428.398,627.613)"
         id="g3479" />
    </g>
    <path
       d="m 651.99344,91.293915 -97.55263,0 c -2.75116,0 -4.98139,2.2302 -4.98139,4.981375 l 0,24.4909 c 0,2.75117 2.23023,4.98138 4.98139,4.98138 l 97.55263,0 c 2.75117,0 4.98138,-2.23021 4.98138,-4.98138 l 0,-24.4909 c 0,-2.751175 -2.23021,-4.981375 -4.98138,-4.981375 z"
       id="path3487"
       style="fill:#7c9ccd;fill-opacity:1;fill-rule:nonzero;stroke:#ffffff;stroke-width:0.49812499;stroke-linecap:butt;stroke-linejoin:miter;stroke-miterlimit:10;stroke-opacity:1;stroke-dasharray:none" />
    <g
       transform="matrix(1.25,0,0,-1.25,-93.1423,894.90574)"
       id="g3495">
      <text
         transform="matrix(1,0,0,-1,518.062,627.613)"
         id="text3497">
        <tspan
           x="0 7.0017152 9.5481558 15.13817 20.617601 26.097031 31.188915 36.778931 40.072567 45.662582 51.750725 56.842609 60.55069 65.53199 68.07843 72.949142"
           y="0"
           id="tspan3499"
           style="font-size:9.96259975px;font-variant:normal;font-weight:normal;writing-mode:lr-tb;fill:#ffffff;fill-opacity:1;fill-rule:nonzero;stroke:none;font-family:CMSSBX10;-inkscape-font-specification:CMSSBX10">PluggedInService</tspan>
      </text>
      <g
         transform="translate(517.398,627.613)"
         id="g3501" />
    </g>
    <path
       d="m 206.98775,129.48361 -97.5526,0 c -2.75117,0 -4.98139,2.2302 -4.98139,4.98138 l 0,24.49092 c 0,2.75119 2.23022,4.98139 4.98139,4.98139 l 97.5526,0 c 2.75118,0 4.98139,-2.2302 4.98139,-4.98139 l 0,-24.49092 c 0,-2.75118 -2.23022,-4.98137 -4.98139,-4.98137 z"
       id="path3509"
       style="fill:#7c9ccd;fill-opacity:1;fill-rule:nonzero;stroke:#ffffff;stroke-width:0.49812499;stroke-linecap:butt;stroke-linejoin:miter;stroke-miterlimit:10;stroke-opacity:1;stroke-dasharray:none" />
    <g
       transform="matrix(1.25,0,0,-1.25,-93.1423,890.90574)"
       id="g3517">
      <text
         transform="matrix(1,0,0,-1,180.486,597.062)"
         id="text3519">
        <tspan
           x="0 7.0017152 12.481145 18.071159 22.098043 24.644484 30.234499 35.713928"
           y="0"
           id="tspan3521"
           style="font-size:9.96259975px;font-variant:normal;font-weight:normal;writing-mode:lr-tb;fill:#ffffff;fill-opacity:1;fill-rule:nonzero;stroke:none;font-family:CMSSBX10;-inkscape-font-specification:CMSSBX10">Routing/</tspan>
        <tspan
           x="-6.1960001 1.7192857 4.2657261 8.4669542 14.05697 19.287334 23.314217 28.184933 33.774948 36.321388 41.911404"
           y="11.955"
           id="tspan3523"
           style="font-size:9.96259975px;font-variant:normal;font-weight:normal;writing-mode:lr-tb;fill:#ffffff;fill-opacity:1;fill-rule:nonzero;stroke:none;font-family:CMSSBX10;-inkscape-font-specification:CMSSBX10">Dispatching</tspan>
      </text>
      <g
         transform="translate(161.398,597.062)"
         id="g3525" />
    </g>
    <path
       d="m 318.23916,129.48361 -97.5526,0 c -2.75119,0 -4.98139,2.2302 -4.98139,4.98138 l 0,24.49092 c 0,2.75119 2.2302,4.98139 4.98139,4.98139 l 97.5526,0 c 2.75118,0 4.98139,-2.2302 4.98139,-4.98139 l 0,-24.49092 c 0,-2.75118 -2.23021,-4.98137 -4.98139,-4.98137 z"
       id="path3533"
       style="fill:#7c9ccd;fill-opacity:1;fill-rule:nonzero;stroke:#ffffff;stroke-width:0.49812499;stroke-linecap:butt;stroke-linejoin:miter;stroke-miterlimit:10;stroke-opacity:1;stroke-dasharray:none" />
    <g
       transform="matrix(1.25,0,0,-1.25,-93.1423,894.90574)"
       id="g3541">
      <text
         transform="matrix(1,0,0,-1,272.531,597.062)"
         id="text3543">
        <tspan
           x="0 7.0017152 12.0936 17.323965 22.194681 26.221563 31.392153"
           y="0"
           id="tspan3545"
           style="font-size:9.96259975px;font-variant:normal;font-weight:normal;writing-mode:lr-tb;fill:#ffffff;fill-opacity:1;fill-rule:nonzero;stroke:none;font-family:CMSSBX10;-inkscape-font-specification:CMSSBX10">Reactor</tspan>
      </text>
      <g
         transform="translate(250.398,597.062)"
         id="g3547" />
    </g>
    <path
       d="m 651.99344,129.48361 -320.05546,0 c -2.75119,0 -4.98139,2.2302 -4.98139,4.98138 l 0,24.49092 c 0,2.75119 2.2302,4.98139 4.98139,4.98139 l 320.05546,0 c 2.75117,0 4.98138,-2.2302 4.98138,-4.98139 l 0,-24.49092 c 0,-2.75118 -2.23021,-4.98137 -4.98138,-4.98137 z"
       id="path3555"
       style="fill:#7c9ccd;fill-opacity:1;fill-rule:nonzero;stroke:#ffffff;stroke-width:0.49812499;stroke-linecap:butt;stroke-linejoin:miter;stroke-miterlimit:10;stroke-opacity:1;stroke-dasharray:none" />
    <g
       transform="matrix(1.25,0,0,-1.25,326.95395,146.71074)"
       id="g3563" />
    <text
       x="471.3652"
       y="149.82324"
       id="text3575"
       style="font-size:15px">
      <tspan
         x="471.3652 480.11734 483.30038 490.2879 497.13721 500.32025 507.30777"
         y="149.82324"
         id="tspan3577"
         style="font-size:12.45324993px;font-variant:normal;font-weight:normal;writing-mode:lr-tb;fill:#ffffff;fill-opacity:1;fill-rule:nonzero;stroke:none;font-family:CMSSBX10;-inkscape-font-specification:CMSSBX10">Plugins</tspan>
    </text>
    <g
       transform="matrix(1.25,0,0,-1.25,471.3652,149.82324)"
       id="g3579" />
    <path
       d="m 318.23916,167.67334 -208.80401,0 c -2.75117,0 -4.98139,2.23021 -4.98139,4.98139 l 0,24.49091 c 0,2.75117 2.23022,4.98139 4.98139,4.98139 l 208.80401,0 c 2.75118,0 4.98139,-2.23022 4.98139,-4.98139 l 0,-24.49091 c 0,-2.75118 -2.23021,-4.98139 -4.98139,-4.98139 z"
       id="path3587"
       style="fill:#7c9ccd;fill-opacity:1;fill-rule:nonzero;stroke:#ffffff;stroke-width:0.49812499;stroke-linecap:butt;stroke-linejoin:miter;stroke-miterlimit:10;stroke-opacity:1;stroke-dasharray:none" />
    <g
       transform="matrix(1.25,0,0,-1.25,104.45395,184.89949)"
       id="g3595" />
    <text
       x="182.82394"
       y="188.01324"
       id="text3607"
       style="font-size:15px">
      <tspan
         x="182.82394 192.71806 202.61217 211.74414 218.59341 227.34557 236.0977"
         y="188.01324"
         id="tspan3609"
         style="font-size:12.45324993px;font-variant:normal;font-weight:normal;writing-mode:lr-tb;fill:#ffffff;fill-opacity:1;fill-rule:nonzero;stroke:none;font-family:CMSSBX10;-inkscape-font-specification:CMSSBX10">DHT/RCP</tspan>
    </text>
    <g
       transform="matrix(1.25,0,0,-1.25,182.82395,188.01324)"
       id="g3611" />
    <path
       d="m 651.99344,167.67334 -320.05546,0 c -2.75119,0 -4.98139,2.23021 -4.98139,4.98139 l 0,24.49091 c 0,2.75117 2.2302,4.98139 4.98139,4.98139 l 320.05546,0 c 2.75117,0 4.98138,-2.23022 4.98138,-4.98139 l 0,-24.49091 c 0,-2.75118 -2.23021,-4.98139 -4.98138,-4.98139 z"
       id="path3619"
       style="fill:#7c9ccd;fill-opacity:1;fill-rule:nonzero;stroke:#ffffff;stroke-width:0.49812499;stroke-linecap:butt;stroke-linejoin:miter;stroke-miterlimit:10;stroke-opacity:1;stroke-dasharray:none" />
    <g
       transform="matrix(1.25,0,0,-1.25,326.95395,184.89949)"
       id="g3627" />
    <text
       x="434.27771"
       y="189.22324"
       id="text3639"
       style="font-size:15px">
      <tspan
         x="434.27771 444.17181 453.30377 462.43573 475.75824 484.51038 492.50162 500.11182 513.80164 521.41187 527.77667 532.4118 538.63843 545.0033"
         y="189.22324"
         id="tspan3641"
         style="font-size:12.45324993px;font-variant:normal;font-weight:normal;writing-mode:lr-tb;fill:#ffffff;fill-opacity:1;fill-rule:nonzero;stroke:none;font-family:CMSSBX10;-inkscape-font-specification:CMSSBX10">HTTPRESTServer</tspan>
    </text>
    <g
       transform="matrix(1.25,0,0,-1.25,434.2777,189.22324)"
       id="g3643" />
    <path
       d="m 318.23916,205.86306 -208.80401,0 c -2.75117,0 -4.98139,2.2302 -4.98139,4.98138 l 0,24.49092 c 0,2.75119 2.23022,4.98139 4.98139,4.98139 l 208.80401,0 c 2.75118,0 4.98139,-2.2302 4.98139,-4.98139 l 0,-24.49092 c 0,-2.75118 -2.23021,-4.98138 -4.98139,-4.98138 z"
       id="path3651"
       style="fill:#7c9ccd;fill-opacity:1;fill-rule:nonzero;stroke:#ffffff;stroke-width:0.49812499;stroke-linecap:butt;stroke-linejoin:miter;stroke-miterlimit:10;stroke-opacity:1;stroke-dasharray:none" />
    <g
       transform="matrix(1.25,0,0,-1.25,104.45395,223.08824)"
       id="g3659" />
    <text
       x="178.19769"
       y="227.41324"
       id="text3671"
       style="font-size:15px">
      <tspan
         x="178.19769 187.71074 197.60484 210.92734 218.53751 225.76041 231.84879 238.08289 244.44774"
         y="227.41324"
         id="tspan3673"
         style="font-size:12.45324993px;font-variant:normal;font-weight:normal;writing-mode:lr-tb;fill:#ffffff;fill-opacity:1;fill-rule:nonzero;stroke:none;font-family:CMSSBX10;-inkscape-font-specification:CMSSBX10">UDPSocket</tspan>
    </text>
    <g
       transform="matrix(1.25,0,0,-1.25,178.1977,227.41324)"
       id="g3675" />
    <path
       d="m 651.99344,205.86306 -320.05546,0 c -2.75119,0 -4.98139,2.2302 -4.98139,4.98138 l 0,24.49092 c 0,2.75119 2.2302,4.98139 4.98139,4.98139 l 320.05546,0 c 2.75117,0 4.98138,-2.2302 4.98138,-4.98139 l 0,-24.49092 c 0,-2.75118 -2.23021,-4.98138 -4.98138,-4.98138 z"
       id="path3683"
       style="fill:#7c9ccd;fill-opacity:1;fill-rule:nonzero;stroke:#ffffff;stroke-width:0.49812499;stroke-linecap:butt;stroke-linejoin:miter;stroke-miterlimit:10;stroke-opacity:1;stroke-dasharray:none" />
    <g
       transform="matrix(1.25,0,0,-1.25,326.95395,223.08824)"
       id="g3691" />
    <text
       x="457.0827"
       y="227.41324"
       id="text3703"
       style="font-size:15px">
      <tspan
         x="457.0827 466.21466 474.96683 488.28931 495.89948 503.12238 509.21075 515.44489 521.80969"
         y="227.41324"
         id="tspan3705"
         style="font-size:12.45324993px;font-variant:normal;font-weight:normal;writing-mode:lr-tb;fill:#ffffff;fill-opacity:1;fill-rule:nonzero;stroke:none;font-family:CMSSBX10;-inkscape-font-specification:CMSSBX10">TCPSocket</tspan>
    </text>
    <g
       transform="matrix(1.25,0,0,-1.25,457.0827,227.41324)"
       id="g3707" />
    <path
       d="m 662.45432,255.75903 -563.48007,0 c -2.751175,0 -4.981375,2.23021 -4.981375,4.98138 l 0,24.49093 c 0,2.75119 2.2302,4.98139 4.981375,4.98139 l 563.48007,0 c 2.75119,0 4.98139,-2.2302 4.98139,-4.98139 l 0,-24.49092 c 0,-2.75118 -2.2302,-4.98139 -4.98139,-4.98139 z"
       id="path3715"
       style="fill:#4979c1;fill-opacity:1;fill-rule:nonzero;stroke:#000000;stroke-width:0.49812499;stroke-linecap:butt;stroke-linejoin:miter;stroke-miterlimit:10;stroke-opacity:1;stroke-dasharray:none" />
    <g
       transform="matrix(1.25,0,0,-1.25,-93.1423,894.90574)"
       id="g3723">
      <text
         transform="matrix(1,0,0,-1,372.69,496.043)"
         id="text3725">
        <tspan
           x="0 7.3055744"
           y="0"
           id="tspan3727"
           style="font-size:9.96259975px;font-variant:normal;font-weight:normal;writing-mode:lr-tb;fill:#ffffff;fill-opacity:1;fill-rule:nonzero;stroke:none;font-family:CMSSBX10;-inkscape-font-specification:CMSSBX10">V8</tspan>
      </text>
      <g
         transform="translate(149.709,496.043)"
         id="g3729" />
    </g>
    <path
       d="m 652.9897,305.40594 -544.55081,0 c -2.75119,0 -4.98139,2.23021 -4.98139,4.98139 l 0,24.49091 c 0,2.75117 2.2302,4.98137 4.98139,4.98137 l 544.55081,0 c 2.75118,0 4.98139,-2.2302 4.98139,-4.98137 l 0,-24.49091 c 0,-2.75118 -2.23021,-4.98139 -4.98139,-4.98139 z"
       id="path3737"
       style="fill:#4979c1;fill-opacity:1;fill-rule:nonzero;stroke:#000000;stroke-width:0.49812499;stroke-linecap:butt;stroke-linejoin:miter;stroke-miterlimit:10;stroke-opacity:1;stroke-dasharray:none" />
    <g
       transform="matrix(1.25,0,0,-1.25,-93.1423,894.90574)"
       id="g3745">
      <text
         transform="matrix(1,0,0,-1,308.116,456.326)"
         id="text3747">
        <tspan
           x="0 7.9152856 13.007171 16.725212 23.842495 29.013084 32.721165 41.663593 44.210033 49.800049 53.826931 58.918816 62.626896 65.975327 71.205688 76.076408 81.168289 85.369522 90.848946 97.850662 105.76595 111.8541 115.14773 122.45331 127.93273 135.84802"
           y="0"
           id="tspan3749"
           style="font-size:9.96259975px;font-variant:normal;font-weight:normal;writing-mode:lr-tb;fill:#ffffff;fill-opacity:1;fill-rule:nonzero;stroke:none;font-family:CMSSBX10;-inkscape-font-specification:CMSSBX10">Networkinterfaces/POSIX/OS</tspan>
      </text>
      <g
         transform="translate(157.28,456.326)"
         id="g3751" />
    </g>
    <path
       d="m 652.9897,343.59566 -544.55081,0 c -2.75119,0 -4.98139,2.23021 -4.98139,4.98138 l 0,24.49094 c 0,2.75117 2.2302,4.98138 4.98139,4.98138 l 544.55081,0 c 2.75118,0 4.98139,-2.23021 4.98139,-4.98138 l 0,-24.49094 c 0,-2.75117 -2.23021,-4.98138 -4.98139,-4.98138 z"
       id="path3759"
       style="fill:#cad97e;fill-opacity:1;fill-rule:nonzero;stroke:#ffffff;stroke-width:0.49812499;stroke-linecap:butt;stroke-linejoin:miter;stroke-miterlimit:10;stroke-opacity:1;stroke-dasharray:none" />
    <g
       transform="matrix(1.25,0,0,-1.25,103.4577,360.81949)"
       id="g3767" />
    <text
       x="333.5177"
       y="365.14325"
       id="text3779"
       style="font-size:15px">
      <tspan
         x="333.5177 342.26984 352.16394 359.77414 363.89117 377.59348 381.71054 388.69806 393.73166 400.09653 404.7316 408.91714 415.45511 421.54349"
         y="365.14325"
         id="tspan3781"
         style="font-size:12.45324993px;font-variant:normal;font-weight:normal;writing-mode:lr-tb;fill:#ffffff;fill-opacity:1;fill-rule:nonzero;stroke:none;font-family:CMSSBX10;-inkscape-font-specification:CMSSBX10">POSIXInterface</tspan>
    </text>
    <g
       transform="matrix(1.25,0,0,-1.25,333.5177,365.14324)"
       id="g3783" />
    <path
       d="m 652.9897,381.78539 -544.55081,0 c -2.75119,0 -4.98139,2.23021 -4.98139,4.98139 l 0,24.49091 c 0,2.75117 2.2302,4.98139 4.98139,4.98139 l 544.55081,0 c 2.75118,0 4.98139,-2.23022 4.98139,-4.98139 l 0,-24.49091 c 0,-2.75118 -2.23021,-4.98139 -4.98139,-4.98139 z"
       id="path3791"
       style="fill:#cad97e;fill-opacity:1;fill-rule:nonzero;stroke:#ffffff;stroke-width:0.49812499;stroke-linecap:butt;stroke-linejoin:miter;stroke-miterlimit:10;stroke-opacity:1;stroke-dasharray:none" />
    <g
       transform="matrix(1.25,0,0,-1.25,103.4577,399.00824)"
       id="g3799" />
    <text
       x="362.18646"
       y="403.33325"
       id="text3811"
       style="font-size:15px">
      <tspan
         x="362.18646 371.69949 378.06433 382.69943 389.68695 396.05182"
         y="403.33325"
         id="tspan3813"
         style="font-size:12.45324993px;font-variant:normal;font-weight:normal;writing-mode:lr-tb;fill:#ffffff;fill-opacity:1;fill-rule:nonzero;stroke:none;font-family:CMSSBX10;-inkscape-font-specification:CMSSBX10">Kernel</tspan>
    </text>
    <g
       transform="matrix(1.25,0,0,-1.25,362.18645,403.33324)"
       id="g3815" />
    <path
       d="m 663.45059,431.4323 -565.472603,0 c -2.751175,0 -4.981387,2.23022 -4.981387,4.98139 l 0,24.49091 c 0,2.75118 2.230212,4.98139 4.981387,4.98139 l 565.472603,0 c 2.75118,0 4.98138,-2.23021 4.98138,-4.98139 l 0,-24.49091 c 0,-2.75117 -2.2302,-4.98139 -4.98138,-4.98139 z"
       id="path3823"
       style="fill:#95b300;fill-opacity:1;fill-rule:nonzero;stroke:#000000;stroke-width:0.49812499;stroke-linecap:butt;stroke-linejoin:miter;stroke-miterlimit:10;stroke-opacity:1;stroke-dasharray:none" />
    <g
       transform="matrix(1.25,0,0,-1.25,-93.1423,894.90574)"
       id="g3831">
      <text
         transform="matrix(1,0,0,-1,312.464,355.506)"
         id="text3833">
        <tspan
           x="0 7.9152856 13.007171 16.725212 23.842495 29.013084 32.721165 41.663593 45.925594 52.318592 56.345478 61.935493 67.027374 70.735458 76.32547 81.417358 85.444237 90.923668 97.312683 104.61826 114.35969 119.83912 122.88369 125.92826 128.97282"
           y="0"
           id="tspan3835"
           style="font-size:9.96259975px;font-variant:normal;font-weight:normal;writing-mode:lr-tb;fill:#ffffff;fill-opacity:1;fill-rule:nonzero;stroke:none;font-family:CMSSBX10;-inkscape-font-specification:CMSSBX10">Network(Ethernet/ATM/...)</tspan>
      </text>
      <g
         transform="translate(148.912,355.506)"
         id="g3837" />
    </g>
    <text
       x="320.90021"
       y="83.408241"
       id="text3849"
       style="font-size:15px">
      <tspan
         x="320.90021 329.20279 333.45807 338.99228 345.42688 348.40195 352.89883 358.43304 363.96729 368.46414 374.89874 379.15402 388.83517 395.0618 403.02689 413.15884 421.97949 428.55481 434.98941"
         y="83.408241"
         id="tspan3851"
         style="font-size:12.45324993px;font-variant:normal;font-weight:normal;writing-mode:lr-tb;fill:#ffffff;fill-opacity:1;fill-rule:nonzero;stroke:none;font-family:CMSSI10;-inkscape-font-specification:CMSSI10">ArchitectureofaNode</tspan>
    </text>
    <g
       transform="matrix(1.25,0,0,-1.25,320.9002,83.40824)"
       id="g3853" />
  </g>
</svg>
